<?xml version="1.0" encoding="utf-8" standalone="no"?>
<!DOCTYPE svg PUBLIC "-//W3C//DTD SVG 1.1//EN"
  "http://www.w3.org/Graphics/SVG/1.1/DTD/svg11.dtd">
<svg xmlns:xlink="http://www.w3.org/1999/xlink" width="508.032pt" height="49.35375pt" viewBox="0 0 508.032 49.35375" xmlns="http://www.w3.org/2000/svg" version="1.1">
 <metadata>
  <rdf:RDF xmlns:dc="http://purl.org/dc/elements/1.1/" xmlns:cc="http://creativecommons.org/ns#" xmlns:rdf="http://www.w3.org/1999/02/22-rdf-syntax-ns#">
   <cc:Work>
    <dc:type rdf:resource="http://purl.org/dc/dcmitype/StillImage"/>
    <dc:date>2025-11-22T20:36:36.705495</dc:date>
    <dc:format>image/svg+xml</dc:format>
    <dc:creator>
     <cc:Agent>
      <dc:title>Matplotlib v3.10.1, https://matplotlib.org/</dc:title>
     </cc:Agent>
    </dc:creator>
   </cc:Work>
  </rdf:RDF>
 </metadata>
 <defs>
  <style type="text/css">*{stroke-linejoin: round; stroke-linecap: butt}</style>
 </defs>
 <g id="figure_1">
  <g id="patch_1">
   <path d="M 0 49.35375 
L 508.032 49.35375 
L 508.032 0 
L 0 0 
z
" style="fill: #ffffff"/>
  </g>
  <g id="axes_1">
   <g id="patch_2">
    <path d="M 0 30.24 
L 508.032 30.24 
L 508.032 0 
L 0 0 
z
" style="fill: #ffffff"/>
   </g>
   <g id="QuadMesh_1">
    <path d="M 0 30.24 
L 0 0 
L 33.8688 0 
L 33.8688 30.24 
L 0 30.24 
" clip-path="url(#p1678907f65)" style="fill: #543005"/>
    <path d="M 33.8688 30.24 
L 33.8688 0 
L 67.7376 0 
L 67.7376 30.24 
L 33.8688 30.24 
" clip-path="url(#p1678907f65)" style="fill: #794c13"/>
    <path d="M 67.7376 30.24 
L 67.7376 0 
L 101.6064 0 
L 101.6064 30.24 
L 67.7376 30.24 
" clip-path="url(#p1678907f65)" style="fill: #9f6921"/>
    <path d="M 101.6064 30.24 
L 101.6064 0 
L 135.4752 0 
L 135.4752 30.24 
L 101.6064 30.24 
" clip-path="url(#p1678907f65)" style="fill: #c18535"/>
    <path d="M 135.4752 30.24 
L 135.4752 0 
L 169.344 0 
L 169.344 30.24 
L 135.4752 30.24 
" clip-path="url(#p1678907f65)" style="fill: #cea165"/>
    <path d="M 169.344 30.24 
L 169.344 0 
L 203.2128 0 
L 203.2128 30.24 
L 169.344 30.24 
" clip-path="url(#p1678907f65)" style="fill: #ddbf97"/>
    <path d="M 203.2128 30.24 
L 203.2128 0 
L 237.0816 0 
L 237.0816 30.24 
L 203.2128 30.24 
" clip-path="url(#p1678907f65)" style="fill: #eadbc7"/>
    <path d="M 237.0816 30.24 
L 237.0816 0 
L 270.9504 0 
L 270.9504 30.24 
L 237.0816 30.24 
" clip-path="url(#p1678907f65)" style="fill: #f8f8f7"/>
    <path d="M 270.9504 30.24 
L 270.9504 0 
L 304.8192 0 
L 304.8192 30.24 
L 270.9504 30.24 
" clip-path="url(#p1678907f65)" style="fill: #cce2e0"/>
    <path d="M 304.8192 30.24 
L 304.8192 0 
L 338.688 0 
L 338.688 30.24 
L 304.8192 30.24 
" clip-path="url(#p1678907f65)" style="fill: #9ecbc7"/>
    <path d="M 338.688 30.24 
L 338.688 0 
L 372.5568 0 
L 372.5568 30.24 
L 338.688 30.24 
" clip-path="url(#p1678907f65)" style="fill: #6db3ad"/>
    <path d="M 372.5568 30.24 
L 372.5568 0 
L 406.4256 0 
L 406.4256 30.24 
L 372.5568 30.24 
" clip-path="url(#p1678907f65)" style="fill: #3f9c94"/>
    <path d="M 406.4256 30.24 
L 406.4256 0 
L 440.2944 0 
L 440.2944 30.24 
L 406.4256 30.24 
" clip-path="url(#p1678907f65)" style="fill: #267e74"/>
    <path d="M 440.2944 30.24 
L 440.2944 0 
L 474.1632 0 
L 474.1632 30.24 
L 440.2944 30.24 
" clip-path="url(#p1678907f65)" style="fill: #135d53"/>
    <path d="M 474.1632 30.24 
L 474.1632 0 
L 508.032 0 
L 508.032 30.24 
L 474.1632 30.24 
" clip-path="url(#p1678907f65)" style="fill: #003c30"/>
   </g>
   <g id="matplotlib.axis_1">
    <g id="xtick_1">
     <g id="line2d_1">
      <defs>
       <path id="me3d2d56505" d="M 0 0 
L 0 4 
" style="stroke: #000000; stroke-width: 0.8"/>
      </defs>
      <g>
       <use xlink:href="#me3d2d56505" x="23.46837" y="30.24" style="stroke: #000000; stroke-width: 0.8"/>
      </g>
     </g>
     <g id="text_1">
      <!-- -20 -->
      <g transform="translate(13.668682 46.858125) scale(0.12 -0.12)">
       <defs>
        <path id="DejaVuSans-2d" d="M 313 2009 
L 1997 2009 
L 1997 1497 
L 313 1497 
L 313 2009 
z
" transform="scale(0.015625)"/>
        <path id="DejaVuSans-32" d="M 1228 531 
L 3431 531 
L 3431 0 
L 469 0 
L 469 531 
Q 828 903 1448 1529 
Q 2069 2156 2228 2338 
Q 2531 2678 2651 2914 
Q 2772 3150 2772 3378 
Q 2772 3750 2511 3984 
Q 2250 4219 1831 4219 
Q 1534 4219 1204 4116 
Q 875 4013 500 3803 
L 500 4441 
Q 881 4594 1212 4672 
Q 1544 4750 1819 4750 
Q 2544 4750 2975 4387 
Q 3406 4025 3406 3419 
Q 3406 3131 3298 2873 
Q 3191 2616 2906 2266 
Q 2828 2175 2409 1742 
Q 1991 1309 1228 531 
z
" transform="scale(0.015625)"/>
        <path id="DejaVuSans-30" d="M 2034 4250 
Q 1547 4250 1301 3770 
Q 1056 3291 1056 2328 
Q 1056 1369 1301 889 
Q 1547 409 2034 409 
Q 2525 409 2770 889 
Q 3016 1369 3016 2328 
Q 3016 3291 2770 3770 
Q 2525 4250 2034 4250 
z
M 2034 4750 
Q 2819 4750 3233 4129 
Q 3647 3509 3647 2328 
Q 3647 1150 3233 529 
Q 2819 -91 2034 -91 
Q 1250 -91 836 529 
Q 422 1150 422 2328 
Q 422 3509 836 4129 
Q 1250 4750 2034 4750 
z
" transform="scale(0.015625)"/>
       </defs>
       <use xlink:href="#DejaVuSans-2d"/>
       <use xlink:href="#DejaVuSans-32" transform="translate(36.083984 0)"/>
       <use xlink:href="#DejaVuSans-30" transform="translate(99.707031 0)"/>
      </g>
     </g>
    </g>
    <g id="xtick_2">
     <g id="line2d_2">
      <g>
       <use xlink:href="#me3d2d56505" x="81.105277" y="30.24" style="stroke: #000000; stroke-width: 0.8"/>
      </g>
     </g>
     <g id="text_2">
      <!-- -15 -->
      <g transform="translate(71.30559 46.858125) scale(0.12 -0.12)">
       <defs>
        <path id="DejaVuSans-31" d="M 794 531 
L 1825 531 
L 1825 4091 
L 703 3866 
L 703 4441 
L 1819 4666 
L 2450 4666 
L 2450 531 
L 3481 531 
L 3481 0 
L 794 0 
L 794 531 
z
" transform="scale(0.015625)"/>
        <path id="DejaVuSans-35" d="M 691 4666 
L 3169 4666 
L 3169 4134 
L 1269 4134 
L 1269 2991 
Q 1406 3038 1543 3061 
Q 1681 3084 1819 3084 
Q 2600 3084 3056 2656 
Q 3513 2228 3513 1497 
Q 3513 744 3044 326 
Q 2575 -91 1722 -91 
Q 1428 -91 1123 -41 
Q 819 9 494 109 
L 494 744 
Q 775 591 1075 516 
Q 1375 441 1709 441 
Q 2250 441 2565 725 
Q 2881 1009 2881 1497 
Q 2881 1984 2565 2268 
Q 2250 2553 1709 2553 
Q 1456 2553 1204 2497 
Q 953 2441 691 2322 
L 691 4666 
z
" transform="scale(0.015625)"/>
       </defs>
       <use xlink:href="#DejaVuSans-2d"/>
       <use xlink:href="#DejaVuSans-31" transform="translate(36.083984 0)"/>
       <use xlink:href="#DejaVuSans-35" transform="translate(99.707031 0)"/>
      </g>
     </g>
    </g>
    <g id="xtick_3">
     <g id="line2d_3">
      <g>
       <use xlink:href="#me3d2d56505" x="138.742185" y="30.24" style="stroke: #000000; stroke-width: 0.8"/>
      </g>
     </g>
     <g id="text_3">
      <!-- -10 -->
      <g transform="translate(128.942497 46.858125) scale(0.12 -0.12)">
       <use xlink:href="#DejaVuSans-2d"/>
       <use xlink:href="#DejaVuSans-31" transform="translate(36.083984 0)"/>
       <use xlink:href="#DejaVuSans-30" transform="translate(99.707031 0)"/>
      </g>
     </g>
    </g>
    <g id="xtick_4">
     <g id="line2d_4">
      <g>
       <use xlink:href="#me3d2d56505" x="196.379092" y="30.24" style="stroke: #000000; stroke-width: 0.8"/>
      </g>
     </g>
     <g id="text_4">
      <!-- -5 -->
      <g transform="translate(190.396905 46.858125) scale(0.12 -0.12)">
       <use xlink:href="#DejaVuSans-2d"/>
       <use xlink:href="#DejaVuSans-35" transform="translate(36.083984 0)"/>
      </g>
     </g>
    </g>
    <g id="xtick_5">
     <g id="line2d_5">
      <g>
       <use xlink:href="#me3d2d56505" x="254.016" y="30.24" style="stroke: #000000; stroke-width: 0.8"/>
      </g>
     </g>
     <g id="text_5">
      <!-- 0 -->
      <g transform="translate(250.1985 46.858125) scale(0.12 -0.12)">
       <use xlink:href="#DejaVuSans-30"/>
      </g>
     </g>
    </g>
    <g id="xtick_6">
     <g id="line2d_6">
      <g>
       <use xlink:href="#me3d2d56505" x="311.652908" y="30.24" style="stroke: #000000; stroke-width: 0.8"/>
      </g>
     </g>
     <g id="text_6">
      <!-- 5 -->
      <g transform="translate(307.835408 46.858125) scale(0.12 -0.12)">
       <use xlink:href="#DejaVuSans-35"/>
      </g>
     </g>
    </g>
    <g id="xtick_7">
     <g id="line2d_7">
      <g>
       <use xlink:href="#me3d2d56505" x="369.289815" y="30.24" style="stroke: #000000; stroke-width: 0.8"/>
      </g>
     </g>
     <g id="text_7">
      <!-- 10 -->
      <g transform="translate(361.654815 46.858125) scale(0.12 -0.12)">
       <use xlink:href="#DejaVuSans-31"/>
       <use xlink:href="#DejaVuSans-30" transform="translate(63.623047 0)"/>
      </g>
     </g>
    </g>
    <g id="xtick_8">
     <g id="line2d_8">
      <g>
       <use xlink:href="#me3d2d56505" x="426.926723" y="30.24" style="stroke: #000000; stroke-width: 0.8"/>
      </g>
     </g>
     <g id="text_8">
      <!-- 15 -->
      <g transform="translate(419.291723 46.858125) scale(0.12 -0.12)">
       <use xlink:href="#DejaVuSans-31"/>
       <use xlink:href="#DejaVuSans-35" transform="translate(63.623047 0)"/>
      </g>
     </g>
    </g>
    <g id="xtick_9">
     <g id="line2d_9">
      <g>
       <use xlink:href="#me3d2d56505" x="484.56363" y="30.24" style="stroke: #000000; stroke-width: 0.8"/>
      </g>
     </g>
     <g id="text_9">
      <!-- 20 -->
      <g transform="translate(476.92863 46.858125) scale(0.12 -0.12)">
       <use xlink:href="#DejaVuSans-32"/>
       <use xlink:href="#DejaVuSans-30" transform="translate(63.623047 0)"/>
      </g>
     </g>
    </g>
   </g>
   <g id="matplotlib.axis_2"/>
   <g id="LineCollection_1"/>
   <g id="patch_3">
    <path d="M 0 30.24 
L 0 15.12 
L 0 0 
L 508.032 0 
L 508.032 15.12 
L 508.032 30.24 
L 0 30.24 
z
" style="fill: none; stroke: #000000; stroke-width: 0.8; stroke-linejoin: miter; stroke-linecap: square"/>
   </g>
  </g>
 </g>
 <defs>
  <clipPath id="p1678907f65">
   <rect x="0" y="0" width="508.032" height="30.24"/>
  </clipPath>
 </defs>
</svg>
