<?xml version="1.0" encoding="utf-8" standalone="no"?>
<!DOCTYPE svg PUBLIC "-//W3C//DTD SVG 1.1//EN"
  "http://www.w3.org/Graphics/SVG/1.1/DTD/svg11.dtd">
<svg xmlns:xlink="http://www.w3.org/1999/xlink" width="1088.39952pt" height="296.39952pt" viewBox="0 0 1088.39952 296.39952" xmlns="http://www.w3.org/2000/svg" version="1.1">
 <metadata>
  <rdf:RDF xmlns:dc="http://purl.org/dc/elements/1.1/" xmlns:cc="http://creativecommons.org/ns#" xmlns:rdf="http://www.w3.org/1999/02/22-rdf-syntax-ns#">
   <cc:Work>
    <dc:type rdf:resource="http://purl.org/dc/dcmitype/StillImage"/>
    <dc:date>2025-06-28T01:39:32.948304</dc:date>
    <dc:format>image/svg+xml</dc:format>
    <dc:creator>
     <cc:Agent>
      <dc:title>Matplotlib v3.10.1, https://matplotlib.org/</dc:title>
     </cc:Agent>
    </dc:creator>
   </cc:Work>
  </rdf:RDF>
 </metadata>
 <defs>
  <style type="text/css">*{stroke-linejoin: round; stroke-linecap: butt}</style>
 </defs>
 <g id="figure_1">
  <g id="patch_1">
   <path d="M 0 296.39952 
L 1088.39952 296.39952 
L 1088.39952 0 
L 0 0 
z
" style="fill: #ffffff"/>
  </g>
  <g id="axes_1">
   <g id="patch_2">
    <path d="M 20.878125 275.521395 
L 369.51859 275.521395 
L 369.51859 22.32 
L 20.878125 22.32 
z
" style="fill: #ffffff"/>
   </g>
   <g id="matplotlib.axis_1">
    <g id="text_1">
     <!-- x -->
     <g transform="translate(192.238983 287.119832) scale(0.1 -0.1)">
      <defs>
       <path id="DejaVuSans-78" d="M 3513 3500 
L 2247 1797 
L 3578 0 
L 2900 0 
L 1881 1375 
L 863 0 
L 184 0 
L 1544 1831 
L 300 3500 
L 978 3500 
L 1906 2253 
L 2834 3500 
L 3513 3500 
z
" transform="scale(0.015625)"/>
      </defs>
      <use xlink:href="#DejaVuSans-78"/>
     </g>
    </g>
   </g>
   <g id="matplotlib.axis_2">
    <g id="text_2">
     <!-- Densité -->
     <g transform="translate(14.798438 168.046479) rotate(-90) scale(0.1 -0.1)">
      <defs>
       <path id="DejaVuSans-44" d="M 1259 4147 
L 1259 519 
L 2022 519 
Q 2988 519 3436 956 
Q 3884 1394 3884 2338 
Q 3884 3275 3436 3711 
Q 2988 4147 2022 4147 
L 1259 4147 
z
M 628 4666 
L 1925 4666 
Q 3281 4666 3915 4102 
Q 4550 3538 4550 2338 
Q 4550 1131 3912 565 
Q 3275 0 1925 0 
L 628 0 
L 628 4666 
z
" transform="scale(0.015625)"/>
       <path id="DejaVuSans-65" d="M 3597 1894 
L 3597 1613 
L 953 1613 
Q 991 1019 1311 708 
Q 1631 397 2203 397 
Q 2534 397 2845 478 
Q 3156 559 3463 722 
L 3463 178 
Q 3153 47 2828 -22 
Q 2503 -91 2169 -91 
Q 1331 -91 842 396 
Q 353 884 353 1716 
Q 353 2575 817 3079 
Q 1281 3584 2069 3584 
Q 2775 3584 3186 3129 
Q 3597 2675 3597 1894 
z
M 3022 2063 
Q 3016 2534 2758 2815 
Q 2500 3097 2075 3097 
Q 1594 3097 1305 2825 
Q 1016 2553 972 2059 
L 3022 2063 
z
" transform="scale(0.015625)"/>
       <path id="DejaVuSans-6e" d="M 3513 2113 
L 3513 0 
L 2938 0 
L 2938 2094 
Q 2938 2591 2744 2837 
Q 2550 3084 2163 3084 
Q 1697 3084 1428 2787 
Q 1159 2491 1159 1978 
L 1159 0 
L 581 0 
L 581 3500 
L 1159 3500 
L 1159 2956 
Q 1366 3272 1645 3428 
Q 1925 3584 2291 3584 
Q 2894 3584 3203 3211 
Q 3513 2838 3513 2113 
z
" transform="scale(0.015625)"/>
       <path id="DejaVuSans-73" d="M 2834 3397 
L 2834 2853 
Q 2591 2978 2328 3040 
Q 2066 3103 1784 3103 
Q 1356 3103 1142 2972 
Q 928 2841 928 2578 
Q 928 2378 1081 2264 
Q 1234 2150 1697 2047 
L 1894 2003 
Q 2506 1872 2764 1633 
Q 3022 1394 3022 966 
Q 3022 478 2636 193 
Q 2250 -91 1575 -91 
Q 1294 -91 989 -36 
Q 684 19 347 128 
L 347 722 
Q 666 556 975 473 
Q 1284 391 1588 391 
Q 1994 391 2212 530 
Q 2431 669 2431 922 
Q 2431 1156 2273 1281 
Q 2116 1406 1581 1522 
L 1381 1569 
Q 847 1681 609 1914 
Q 372 2147 372 2553 
Q 372 3047 722 3315 
Q 1072 3584 1716 3584 
Q 2034 3584 2315 3537 
Q 2597 3491 2834 3397 
z
" transform="scale(0.015625)"/>
       <path id="DejaVuSans-69" d="M 603 3500 
L 1178 3500 
L 1178 0 
L 603 0 
L 603 3500 
z
M 603 4863 
L 1178 4863 
L 1178 4134 
L 603 4134 
L 603 4863 
z
" transform="scale(0.015625)"/>
       <path id="DejaVuSans-74" d="M 1172 4494 
L 1172 3500 
L 2356 3500 
L 2356 3053 
L 1172 3053 
L 1172 1153 
Q 1172 725 1289 603 
Q 1406 481 1766 481 
L 2356 481 
L 2356 0 
L 1766 0 
Q 1100 0 847 248 
Q 594 497 594 1153 
L 594 3053 
L 172 3053 
L 172 3500 
L 594 3500 
L 594 4494 
L 1172 4494 
z
" transform="scale(0.015625)"/>
       <path id="DejaVuSans-e9" d="M 3597 1894 
L 3597 1613 
L 953 1613 
Q 991 1019 1311 708 
Q 1631 397 2203 397 
Q 2534 397 2845 478 
Q 3156 559 3463 722 
L 3463 178 
Q 3153 47 2828 -22 
Q 2503 -91 2169 -91 
Q 1331 -91 842 396 
Q 353 884 353 1716 
Q 353 2575 817 3079 
Q 1281 3584 2069 3584 
Q 2775 3584 3186 3129 
Q 3597 2675 3597 1894 
z
M 3022 2063 
Q 3016 2534 2758 2815 
Q 2500 3097 2075 3097 
Q 1594 3097 1305 2825 
Q 1016 2553 972 2059 
L 3022 2063 
z
M 2469 5119 
L 3091 5119 
L 2072 3944 
L 1594 3944 
L 2469 5119 
z
" transform="scale(0.015625)"/>
      </defs>
      <use xlink:href="#DejaVuSans-44"/>
      <use xlink:href="#DejaVuSans-65" transform="translate(77.001953 0)"/>
      <use xlink:href="#DejaVuSans-6e" transform="translate(138.525391 0)"/>
      <use xlink:href="#DejaVuSans-73" transform="translate(201.904297 0)"/>
      <use xlink:href="#DejaVuSans-69" transform="translate(254.003906 0)"/>
      <use xlink:href="#DejaVuSans-74" transform="translate(281.787109 0)"/>
      <use xlink:href="#DejaVuSans-e9" transform="translate(320.996094 0)"/>
     </g>
    </g>
   </g>
   <g id="line2d_1">
    <path d="M 36.725419 264.011955 
L 44.022471 263.903361 
L 45.92605 263.686473 
L 47.512366 263.284327 
L 48.781418 262.712923 
L 49.733208 262.072755 
L 50.684997 261.194341 
L 51.636786 260.020207 
L 52.588576 258.488901 
L 53.540365 256.537294 
L 54.492155 254.103282 
L 55.443944 251.128727 
L 56.395734 247.562434 
L 57.664786 241.816952 
L 58.933839 234.883499 
L 60.202891 226.744235 
L 61.789207 214.927983 
L 63.375523 201.45242 
L 65.596365 180.349063 
L 69.086259 144.295233 
L 72.576154 108.796352 
L 74.796996 88.450235 
L 76.700575 73.168358 
L 78.28689 62.228624 
L 79.555943 54.744929 
L 80.824995 48.425043 
L 82.094048 43.276698 
L 83.045837 40.176721 
L 83.997627 37.715696 
L 84.949416 35.875916 
L 85.901206 34.635418 
L 86.535732 34.128895 
L 87.170258 33.869177 
L 87.804784 33.847522 
L 88.439311 34.054797 
L 89.073837 34.481561 
L 89.708363 35.118135 
L 90.660153 36.444816 
L 91.611942 38.187756 
L 92.880995 41.100881 
L 94.150047 44.614867 
L 95.736363 49.73509 
L 97.639942 56.758196 
L 99.860784 65.875654 
L 102.716152 78.568453 
L 115.723941 137.745654 
L 118.896572 150.595774 
L 121.75194 161.331826 
L 124.607309 171.251762 
L 127.462677 180.356623 
L 130.318045 188.668304 
L 132.85615 195.419396 
L 135.394256 201.603224 
L 137.932361 207.254217 
L 140.470466 212.408372 
L 143.008571 217.102007 
L 145.546676 221.370865 
L 148.084781 225.249485 
L 150.940149 229.187384 
L 153.795518 232.716982 
L 156.650886 235.879013 
L 159.506254 238.710875 
L 162.361622 241.246678 
L 165.534254 243.754543 
L 168.706885 245.973173 
L 171.879517 247.936495 
L 175.369411 249.837067 
L 179.176569 251.640773 
L 182.983727 253.201498 
L 187.108147 254.657439 
L 191.549831 255.993249 
L 196.308778 257.200109 
L 201.702252 258.335784 
L 207.730252 259.368139 
L 214.392777 260.278107 
L 222.007093 261.087941 
L 230.890461 261.799713 
L 241.360144 262.406127 
L 254.05067 262.910127 
L 270.23109 263.318314 
L 291.804984 263.626997 
L 323.848561 263.842614 
L 353.671296 263.92904 
L 353.671296 263.92904 
" clip-path="url(#p7ef66b2eb7)" style="fill: none; stroke: #1f77b4; stroke-width: 1.5; stroke-linecap: square"/>
   </g>
   <g id="line2d_2">
    <path d="M 36.725419 264.012241 
L 96.688152 263.913562 
L 98.908994 263.657696 
L 100.49531 263.227321 
L 101.764363 262.620497 
L 102.716152 261.944387 
L 103.667941 261.02081 
L 104.619731 259.791491 
L 105.57152 258.194526 
L 106.52331 256.166761 
L 107.475099 253.646544 
L 108.426889 250.576692 
L 109.695941 245.543979 
L 110.964994 239.35814 
L 112.234046 231.971969 
L 113.503099 223.386052 
L 115.089415 211.04874 
L 116.992993 194.176207 
L 119.213835 172.349846 
L 126.828151 95.438144 
L 128.73173 79.265047 
L 130.318045 67.483747 
L 131.904361 57.416096 
L 133.173414 50.657625 
L 134.442466 45.070476 
L 135.711519 40.648603 
L 136.663308 38.08219 
L 137.615098 36.140288 
L 138.566887 34.801594 
L 139.201413 34.232055 
L 139.835939 33.911439 
L 140.470466 33.831111 
L 141.104992 33.982028 
L 141.739518 34.354818 
L 142.374045 34.939858 
L 143.325834 36.193884 
L 144.277623 37.869793 
L 145.546676 40.702272 
L 146.815729 44.145421 
L 148.402044 49.190397 
L 150.305623 56.141551 
L 152.526465 65.198023 
L 155.381833 77.843744 
L 161.409833 105.930474 
L 166.16878 127.527048 
L 169.658675 142.349048 
L 172.831306 154.866832 
L 175.686674 165.287052 
L 178.542043 174.888571 
L 181.397411 183.681467 
L 184.252779 191.693804 
L 186.790884 198.192645 
L 189.328989 204.138995 
L 191.867095 209.568149 
L 194.4052 214.516374 
L 196.943305 219.01983 
L 199.48141 223.113798 
L 202.019515 226.832145 
L 204.874883 230.606208 
L 207.730252 233.988206 
L 210.58562 237.017577 
L 213.440988 239.730429 
L 216.296356 242.159624 
L 219.468988 244.562142 
L 222.641619 246.68776 
L 226.131514 248.744842 
L 229.621408 250.544315 
L 233.428566 252.252578 
L 237.552987 253.845133 
L 241.994671 255.305187 
L 246.753618 256.623163 
L 251.829828 257.795864 
L 257.540565 258.879938 
L 263.885827 259.849954 
L 271.18288 260.726595 
L 279.431721 261.483348 
L 288.949615 262.129251 
L 300.371089 262.677589 
L 314.64793 263.131847 
L 333.366455 263.490472 
L 353.671296 263.708493 
L 353.671296 263.708493 
" clip-path="url(#p7ef66b2eb7)" style="fill: none; stroke: #ff7f0e; stroke-width: 1.5; stroke-linecap: square"/>
   </g>
   <g id="line2d_3">
    <path d="M 36.725419 264.012241 
L 149.671097 263.903361 
L 151.574676 263.686473 
L 153.160991 263.284327 
L 154.430044 262.712923 
L 155.381833 262.072755 
L 156.333623 261.194341 
L 157.285412 260.020207 
L 158.237202 258.488901 
L 159.188991 256.537294 
L 160.14078 254.103282 
L 161.09257 251.128727 
L 162.044359 247.562434 
L 163.313412 241.816952 
L 164.582464 234.883499 
L 165.851517 226.744235 
L 167.437833 214.927983 
L 169.024148 201.45242 
L 171.24499 180.349063 
L 174.734885 144.295233 
L 178.224779 108.796352 
L 180.445621 88.450235 
L 182.3492 73.168358 
L 183.935516 62.228624 
L 185.204569 54.744929 
L 186.473621 48.425043 
L 187.742674 43.276698 
L 188.694463 40.176721 
L 189.646253 37.715696 
L 190.598042 35.875916 
L 191.549831 34.635418 
L 192.184358 34.128895 
L 192.818884 33.869177 
L 193.45341 33.847522 
L 194.087937 34.054797 
L 194.722463 34.481561 
L 195.356989 35.118135 
L 196.308778 36.444816 
L 197.260568 38.187756 
L 198.52962 41.100881 
L 199.798673 44.614867 
L 201.384989 49.73509 
L 203.288568 56.758196 
L 205.50941 65.875654 
L 208.364778 78.568453 
L 221.372567 137.745654 
L 224.545198 150.595774 
L 227.400566 161.331826 
L 230.255935 171.251762 
L 233.111303 180.356623 
L 235.966671 188.668304 
L 238.504776 195.419396 
L 241.042881 201.603224 
L 243.580986 207.254217 
L 246.119092 212.408372 
L 248.657197 217.102007 
L 251.195302 221.370865 
L 253.733407 225.249485 
L 256.588775 229.187384 
L 259.444143 232.716982 
L 262.299512 235.879013 
L 265.15488 238.710875 
L 268.010248 241.246678 
L 271.18288 243.754543 
L 274.355511 245.973173 
L 277.528142 247.936495 
L 281.018037 249.837067 
L 284.825195 251.640773 
L 288.632352 253.201498 
L 292.756773 254.657439 
L 297.198457 255.993249 
L 301.957404 257.200109 
L 307.350878 258.335784 
L 313.378877 259.368139 
L 320.041403 260.278107 
L 327.655719 261.087941 
L 336.539087 261.799713 
L 347.00877 262.406127 
L 353.671296 262.696299 
L 353.671296 262.696299 
" clip-path="url(#p7ef66b2eb7)" style="fill: none; stroke: #2ca02c; stroke-width: 1.5; stroke-linecap: square"/>
   </g>
   <g id="patch_3">
    <path d="M 20.878125 275.521395 
L 20.878125 22.32 
" style="fill: none; stroke: #000000; stroke-width: 0.8; stroke-linejoin: miter; stroke-linecap: square"/>
   </g>
   <g id="patch_4">
    <path d="M 20.878125 275.521395 
L 369.51859 275.521395 
" style="fill: none; stroke: #000000; stroke-width: 0.8; stroke-linejoin: miter; stroke-linecap: square"/>
   </g>
   <g id="text_3">
    <!-- Effet de $\mu$ (position) -->
    <g transform="translate(250.35859 16.32) scale(0.12 -0.12)">
     <defs>
      <path id="DejaVuSans-45" d="M 628 4666 
L 3578 4666 
L 3578 4134 
L 1259 4134 
L 1259 2753 
L 3481 2753 
L 3481 2222 
L 1259 2222 
L 1259 531 
L 3634 531 
L 3634 0 
L 628 0 
L 628 4666 
z
" transform="scale(0.015625)"/>
      <path id="DejaVuSans-66" d="M 2375 4863 
L 2375 4384 
L 1825 4384 
Q 1516 4384 1395 4259 
Q 1275 4134 1275 3809 
L 1275 3500 
L 2222 3500 
L 2222 3053 
L 1275 3053 
L 1275 0 
L 697 0 
L 697 3053 
L 147 3053 
L 147 3500 
L 697 3500 
L 697 3744 
Q 697 4328 969 4595 
Q 1241 4863 1831 4863 
L 2375 4863 
z
" transform="scale(0.015625)"/>
      <path id="DejaVuSans-20" transform="scale(0.015625)"/>
      <path id="DejaVuSans-64" d="M 2906 2969 
L 2906 4863 
L 3481 4863 
L 3481 0 
L 2906 0 
L 2906 525 
Q 2725 213 2448 61 
Q 2172 -91 1784 -91 
Q 1150 -91 751 415 
Q 353 922 353 1747 
Q 353 2572 751 3078 
Q 1150 3584 1784 3584 
Q 2172 3584 2448 3432 
Q 2725 3281 2906 2969 
z
M 947 1747 
Q 947 1113 1208 752 
Q 1469 391 1925 391 
Q 2381 391 2643 752 
Q 2906 1113 2906 1747 
Q 2906 2381 2643 2742 
Q 2381 3103 1925 3103 
Q 1469 3103 1208 2742 
Q 947 2381 947 1747 
z
" transform="scale(0.015625)"/>
      <path id="DejaVuSans-Oblique-3bc" d="M -84 -1331 
L 856 3500 
L 1434 3500 
L 1009 1322 
Q 997 1256 987 1175 
Q 978 1094 978 1013 
Q 978 722 1161 565 
Q 1344 409 1684 409 
Q 2147 409 2431 671 
Q 2716 934 2816 1459 
L 3213 3500 
L 3788 3500 
L 3266 809 
Q 3253 750 3248 706 
Q 3244 663 3244 628 
Q 3244 531 3283 486 
Q 3322 441 3406 441 
Q 3438 441 3492 456 
Q 3547 472 3647 513 
L 3559 50 
Q 3422 -19 3297 -55 
Q 3172 -91 3053 -91 
Q 2847 -91 2730 40 
Q 2613 172 2613 403 
Q 2438 153 2195 31 
Q 1953 -91 1625 -91 
Q 1334 -91 1117 43 
Q 900 178 831 397 
L 494 -1331 
L -84 -1331 
z
" transform="scale(0.015625)"/>
      <path id="DejaVuSans-28" d="M 1984 4856 
Q 1566 4138 1362 3434 
Q 1159 2731 1159 2009 
Q 1159 1288 1364 580 
Q 1569 -128 1984 -844 
L 1484 -844 
Q 1016 -109 783 600 
Q 550 1309 550 2009 
Q 550 2706 781 3412 
Q 1013 4119 1484 4856 
L 1984 4856 
z
" transform="scale(0.015625)"/>
      <path id="DejaVuSans-70" d="M 1159 525 
L 1159 -1331 
L 581 -1331 
L 581 3500 
L 1159 3500 
L 1159 2969 
Q 1341 3281 1617 3432 
Q 1894 3584 2278 3584 
Q 2916 3584 3314 3078 
Q 3713 2572 3713 1747 
Q 3713 922 3314 415 
Q 2916 -91 2278 -91 
Q 1894 -91 1617 61 
Q 1341 213 1159 525 
z
M 3116 1747 
Q 3116 2381 2855 2742 
Q 2594 3103 2138 3103 
Q 1681 3103 1420 2742 
Q 1159 2381 1159 1747 
Q 1159 1113 1420 752 
Q 1681 391 2138 391 
Q 2594 391 2855 752 
Q 3116 1113 3116 1747 
z
" transform="scale(0.015625)"/>
      <path id="DejaVuSans-6f" d="M 1959 3097 
Q 1497 3097 1228 2736 
Q 959 2375 959 1747 
Q 959 1119 1226 758 
Q 1494 397 1959 397 
Q 2419 397 2687 759 
Q 2956 1122 2956 1747 
Q 2956 2369 2687 2733 
Q 2419 3097 1959 3097 
z
M 1959 3584 
Q 2709 3584 3137 3096 
Q 3566 2609 3566 1747 
Q 3566 888 3137 398 
Q 2709 -91 1959 -91 
Q 1206 -91 779 398 
Q 353 888 353 1747 
Q 353 2609 779 3096 
Q 1206 3584 1959 3584 
z
" transform="scale(0.015625)"/>
      <path id="DejaVuSans-29" d="M 513 4856 
L 1013 4856 
Q 1481 4119 1714 3412 
Q 1947 2706 1947 2009 
Q 1947 1309 1714 600 
Q 1481 -109 1013 -844 
L 513 -844 
Q 928 -128 1133 580 
Q 1338 1288 1338 2009 
Q 1338 2731 1133 3434 
Q 928 4138 513 4856 
z
" transform="scale(0.015625)"/>
     </defs>
     <use xlink:href="#DejaVuSans-45" transform="translate(0 0.015625)"/>
     <use xlink:href="#DejaVuSans-66" transform="translate(63.183594 0.015625)"/>
     <use xlink:href="#DejaVuSans-66" transform="translate(98.388672 0.015625)"/>
     <use xlink:href="#DejaVuSans-65" transform="translate(133.59375 0.015625)"/>
     <use xlink:href="#DejaVuSans-74" transform="translate(195.117188 0.015625)"/>
     <use xlink:href="#DejaVuSans-20" transform="translate(234.326172 0.015625)"/>
     <use xlink:href="#DejaVuSans-64" transform="translate(266.113281 0.015625)"/>
     <use xlink:href="#DejaVuSans-65" transform="translate(329.589844 0.015625)"/>
     <use xlink:href="#DejaVuSans-20" transform="translate(391.113281 0.015625)"/>
     <use xlink:href="#DejaVuSans-Oblique-3bc" transform="translate(422.900391 0.015625)"/>
     <use xlink:href="#DejaVuSans-20" transform="translate(486.523438 0.015625)"/>
     <use xlink:href="#DejaVuSans-28" transform="translate(518.310547 0.015625)"/>
     <use xlink:href="#DejaVuSans-70" transform="translate(557.324219 0.015625)"/>
     <use xlink:href="#DejaVuSans-6f" transform="translate(620.800781 0.015625)"/>
     <use xlink:href="#DejaVuSans-73" transform="translate(681.982422 0.015625)"/>
     <use xlink:href="#DejaVuSans-69" transform="translate(734.082031 0.015625)"/>
     <use xlink:href="#DejaVuSans-74" transform="translate(761.865234 0.015625)"/>
     <use xlink:href="#DejaVuSans-69" transform="translate(801.074219 0.015625)"/>
     <use xlink:href="#DejaVuSans-6f" transform="translate(828.857422 0.015625)"/>
     <use xlink:href="#DejaVuSans-6e" transform="translate(890.039062 0.015625)"/>
     <use xlink:href="#DejaVuSans-29" transform="translate(953.417969 0.015625)"/>
    </g>
   </g>
   <g id="legend_1">
    <g id="line2d_4">
     <path d="M 308.22859 34.108594 
L 317.22859 34.108594 
L 326.22859 34.108594 
" style="fill: none; stroke: #1f77b4; stroke-width: 1.5; stroke-linecap: square"/>
    </g>
    <g id="text_4">
     <!-- $\mu$ = -5 -->
     <g transform="translate(333.42859 37.258594) scale(0.09 -0.09)">
      <defs>
       <path id="DejaVuSans-3d" d="M 678 2906 
L 4684 2906 
L 4684 2381 
L 678 2381 
L 678 2906 
z
M 678 1631 
L 4684 1631 
L 4684 1100 
L 678 1100 
L 678 1631 
z
" transform="scale(0.015625)"/>
       <path id="DejaVuSans-2d" d="M 313 2009 
L 1997 2009 
L 1997 1497 
L 313 1497 
L 313 2009 
z
" transform="scale(0.015625)"/>
       <path id="DejaVuSans-35" d="M 691 4666 
L 3169 4666 
L 3169 4134 
L 1269 4134 
L 1269 2991 
Q 1406 3038 1543 3061 
Q 1681 3084 1819 3084 
Q 2600 3084 3056 2656 
Q 3513 2228 3513 1497 
Q 3513 744 3044 326 
Q 2575 -91 1722 -91 
Q 1428 -91 1123 -41 
Q 819 9 494 109 
L 494 744 
Q 775 591 1075 516 
Q 1375 441 1709 441 
Q 2250 441 2565 725 
Q 2881 1009 2881 1497 
Q 2881 1984 2565 2268 
Q 2250 2553 1709 2553 
Q 1456 2553 1204 2497 
Q 953 2441 691 2322 
L 691 4666 
z
" transform="scale(0.015625)"/>
      </defs>
      <use xlink:href="#DejaVuSans-Oblique-3bc" transform="translate(0 0.09375)"/>
      <use xlink:href="#DejaVuSans-20" transform="translate(63.623047 0.09375)"/>
      <use xlink:href="#DejaVuSans-3d" transform="translate(95.410156 0.09375)"/>
      <use xlink:href="#DejaVuSans-20" transform="translate(179.199219 0.09375)"/>
      <use xlink:href="#DejaVuSans-2d" transform="translate(210.986328 0.09375)"/>
      <use xlink:href="#DejaVuSans-35" transform="translate(247.070312 0.09375)"/>
     </g>
    </g>
    <g id="line2d_5">
     <path d="M 308.22859 47.337187 
L 317.22859 47.337187 
L 326.22859 47.337187 
" style="fill: none; stroke: #ff7f0e; stroke-width: 1.5; stroke-linecap: square"/>
    </g>
    <g id="text_5">
     <!-- $\mu$ = 0 -->
     <g transform="translate(333.42859 50.487187) scale(0.09 -0.09)">
      <defs>
       <path id="DejaVuSans-30" d="M 2034 4250 
Q 1547 4250 1301 3770 
Q 1056 3291 1056 2328 
Q 1056 1369 1301 889 
Q 1547 409 2034 409 
Q 2525 409 2770 889 
Q 3016 1369 3016 2328 
Q 3016 3291 2770 3770 
Q 2525 4250 2034 4250 
z
M 2034 4750 
Q 2819 4750 3233 4129 
Q 3647 3509 3647 2328 
Q 3647 1150 3233 529 
Q 2819 -91 2034 -91 
Q 1250 -91 836 529 
Q 422 1150 422 2328 
Q 422 3509 836 4129 
Q 1250 4750 2034 4750 
z
" transform="scale(0.015625)"/>
      </defs>
      <use xlink:href="#DejaVuSans-Oblique-3bc" transform="translate(0 0.78125)"/>
      <use xlink:href="#DejaVuSans-20" transform="translate(63.623047 0.78125)"/>
      <use xlink:href="#DejaVuSans-3d" transform="translate(95.410156 0.78125)"/>
      <use xlink:href="#DejaVuSans-20" transform="translate(179.199219 0.78125)"/>
      <use xlink:href="#DejaVuSans-30" transform="translate(210.986328 0.78125)"/>
     </g>
    </g>
    <g id="line2d_6">
     <path d="M 308.22859 60.565781 
L 317.22859 60.565781 
L 326.22859 60.565781 
" style="fill: none; stroke: #2ca02c; stroke-width: 1.5; stroke-linecap: square"/>
    </g>
    <g id="text_6">
     <!-- $\mu$ = 5 -->
     <g transform="translate(333.42859 63.715781) scale(0.09 -0.09)">
      <use xlink:href="#DejaVuSans-Oblique-3bc" transform="translate(0 0.09375)"/>
      <use xlink:href="#DejaVuSans-20" transform="translate(63.623047 0.09375)"/>
      <use xlink:href="#DejaVuSans-3d" transform="translate(95.410156 0.09375)"/>
      <use xlink:href="#DejaVuSans-20" transform="translate(179.199219 0.09375)"/>
      <use xlink:href="#DejaVuSans-35" transform="translate(210.986328 0.09375)"/>
     </g>
    </g>
   </g>
  </g>
  <g id="axes_2">
   <g id="patch_5">
    <path d="M 376.71859 275.521395 
L 725.359055 275.521395 
L 725.359055 22.32 
L 376.71859 22.32 
z
" style="fill: #ffffff"/>
   </g>
   <g id="matplotlib.axis_3">
    <g id="text_7">
     <!-- x -->
     <g transform="translate(548.079447 287.119832) scale(0.1 -0.1)">
      <use xlink:href="#DejaVuSans-78"/>
     </g>
    </g>
   </g>
   <g id="matplotlib.axis_4"/>
   <g id="line2d_7">
    <path d="M 392.565884 264.012241 
L 475.371564 263.913561 
L 476.323353 263.713207 
L 476.957879 263.434755 
L 477.592405 262.960083 
L 478.226932 262.194503 
L 478.861458 261.020784 
L 479.495984 259.303097 
L 480.130511 256.894358 
L 480.765037 253.646456 
L 481.399563 249.422274 
L 482.351353 241.015873 
L 483.303142 229.936551 
L 484.254931 216.187608 
L 485.523984 194.175614 
L 487.427563 155.928352 
L 490.282931 98.323295 
L 491.551984 76.776629 
L 492.821036 59.285591 
L 493.772826 49.149073 
L 494.724615 41.64403 
L 495.359141 38.080269 
L 495.993668 35.626256 
L 496.628194 34.230102 
L 496.945457 33.909484 
L 497.26272 33.829154 
L 497.579983 33.980072 
L 497.897246 34.352866 
L 498.531773 35.725393 
L 499.166299 37.86787 
L 500.118088 42.350527 
L 501.069878 48.11996 
L 502.33893 57.378228 
L 503.925246 70.709076 
L 506.780614 97.030038 
L 510.587772 131.668564 
L 512.808614 149.974832 
L 515.029456 166.393495 
L 516.933035 178.894301 
L 518.836614 189.978209 
L 520.740193 199.729132 
L 522.643771 208.256896 
L 524.54735 215.682126 
L 526.450929 222.126459 
L 528.354508 227.706537 
L 530.258087 232.53063 
L 532.161666 236.697011 
L 534.065244 240.293467 
L 535.968823 243.397509 
L 537.872402 246.076985 
L 539.775981 248.390905 
L 541.67956 250.390348 
L 543.900402 252.383994 
L 546.121244 254.068809 
L 548.342086 255.494596 
L 550.880191 256.859963 
L 553.735559 258.119807 
L 556.590927 259.143415 
L 560.080822 260.14091 
L 563.88798 260.982731 
L 568.329664 261.722026 
L 573.405874 262.33528 
L 579.751137 262.863133 
L 587.682715 263.283471 
L 598.152399 263.601777 
L 613.38103 263.825094 
L 639.71387 263.958021 
L 706.973656 264.008401 
L 709.511761 264.008726 
L 709.511761 264.008726 
" clip-path="url(#p371dd103b4)" style="fill: none; stroke: #1f77b4; stroke-width: 1.5; stroke-linecap: square"/>
   </g>
   <g id="line2d_8">
    <path d="M 392.565884 264.012241 
L 453.79767 263.907153 
L 456.018512 263.67501 
L 457.604828 263.316363 
L 458.87388 262.839513 
L 460.142933 262.125607 
L 461.411985 261.103359 
L 462.681038 259.698259 
L 463.95009 257.838219 
L 465.219143 255.45977 
L 466.488196 252.514057 
L 467.757248 248.971925 
L 469.026301 244.827499 
L 470.612616 238.831541 
L 472.516195 230.568611 
L 474.737037 219.791597 
L 482.985879 178.306756 
L 484.889458 170.394435 
L 486.475773 164.669941 
L 488.062089 159.813814 
L 489.331142 156.580657 
L 490.600194 153.933411 
L 491.869247 151.866466 
L 492.821036 150.688391 
L 493.772826 149.819249 
L 494.724615 149.247739 
L 495.676404 148.960862 
L 496.628194 148.944263 
L 497.579983 149.182554 
L 498.531773 149.659603 
L 499.483562 150.35881 
L 500.752615 151.60755 
L 502.021667 153.181384 
L 503.607983 155.54612 
L 505.511562 158.869711 
L 507.732404 163.267572 
L 510.587772 169.487209 
L 515.346719 180.521139 
L 521.374719 194.369179 
L 525.181877 202.528149 
L 528.354508 208.835089 
L 531.527139 214.649227 
L 534.382508 219.450027 
L 537.237876 223.846513 
L 540.093244 227.852715 
L 542.948612 231.488567 
L 545.803981 234.777552 
L 548.659349 237.744966 
L 551.514717 240.416652 
L 554.687349 243.06935 
L 557.85998 245.422035 
L 561.032611 247.506278 
L 564.522506 249.52366 
L 568.012401 251.28682 
L 571.819558 252.957411 
L 575.943979 254.5102 
L 580.385663 255.928008 
L 585.14461 257.201294 
L 590.22082 258.327286 
L 595.931557 259.36061 
L 602.27682 260.27726 
L 609.573872 261.097316 
L 617.822714 261.796924 
L 627.657871 262.40249 
L 639.71387 262.911397 
L 654.942501 263.319247 
L 675.247342 263.627761 
L 705.38734 263.843081 
L 709.511761 263.860365 
L 709.511761 263.860365 
" clip-path="url(#p371dd103b4)" style="fill: none; stroke: #ff7f0e; stroke-width: 1.5; stroke-linecap: square"/>
   </g>
   <g id="line2d_9">
    <path d="M 392.565884 264.012169 
L 411.918935 263.907558 
L 416.995146 263.664302 
L 420.802303 263.264377 
L 423.974935 262.702069 
L 426.830303 261.954798 
L 429.368408 261.055066 
L 431.906513 259.899754 
L 434.127355 258.658939 
L 436.348197 257.191634 
L 438.886302 255.231909 
L 441.424407 252.97554 
L 444.279776 250.104673 
L 447.452407 246.553084 
L 450.942302 242.301991 
L 456.335775 235.329621 
L 462.998301 226.760641 
L 466.805459 222.227618 
L 469.97809 218.786785 
L 472.833458 216.008235 
L 475.371564 213.819904 
L 477.909669 211.913027 
L 480.447774 210.296449 
L 482.668616 209.122305 
L 484.889458 208.170857 
L 487.1103 207.437624 
L 489.331142 206.915745 
L 491.551984 206.596387 
L 494.090089 206.46598 
L 496.628194 206.569028 
L 499.166299 206.886702 
L 502.021667 207.476148 
L 504.877036 208.283927 
L 508.049667 209.403254 
L 511.539562 210.860993 
L 515.663982 212.827486 
L 520.740193 215.511498 
L 527.719982 219.482673 
L 545.803981 229.890652 
L 552.78377 233.596184 
L 559.129033 236.725657 
L 565.474295 239.607554 
L 571.819558 242.236914 
L 578.164821 244.618315 
L 584.510084 246.762638 
L 591.17261 248.775185 
L 598.152399 250.641936 
L 605.449451 252.354304 
L 613.063766 253.908709 
L 621.312608 255.357555 
L 630.195976 256.681756 
L 639.71387 257.870024 
L 650.183554 258.947773 
L 661.92229 259.923408 
L 674.930079 260.776245 
L 689.841446 261.526383 
L 707.290919 262.17497 
L 709.511761 262.243453 
L 709.511761 262.243453 
" clip-path="url(#p371dd103b4)" style="fill: none; stroke: #2ca02c; stroke-width: 1.5; stroke-linecap: square"/>
   </g>
   <g id="patch_6">
    <path d="M 376.71859 275.521395 
L 376.71859 22.32 
" style="fill: none; stroke: #000000; stroke-width: 0.8; stroke-linejoin: miter; stroke-linecap: square"/>
   </g>
   <g id="patch_7">
    <path d="M 376.71859 275.521395 
L 725.359055 275.521395 
" style="fill: none; stroke: #000000; stroke-width: 0.8; stroke-linejoin: miter; stroke-linecap: square"/>
   </g>
   <g id="text_8">
    <!-- Effet de $\sigma$ (échelle) -->
    <g transform="translate(610.759055 16.32) scale(0.12 -0.12)">
     <defs>
      <path id="DejaVuSans-Oblique-3c3" d="M 2219 3044 
Q 1744 3044 1422 2700 
Q 1081 2341 969 1747 
Q 844 1119 1044 756 
Q 1241 397 1706 397 
Q 2166 397 2503 759 
Q 2844 1122 2966 1747 
Q 3075 2319 2881 2700 
Q 2700 3044 2219 3044 
z
M 2309 3503 
L 4219 3500 
L 4106 2925 
L 3463 2925 
Q 3706 2438 3575 1747 
Q 3406 888 2884 400 
Q 2359 -91 1609 -91 
Q 856 -91 525 400 
Q 194 888 363 1747 
Q 528 2609 1050 3097 
Q 1484 3503 2309 3503 
z
" transform="scale(0.015625)"/>
      <path id="DejaVuSans-63" d="M 3122 3366 
L 3122 2828 
Q 2878 2963 2633 3030 
Q 2388 3097 2138 3097 
Q 1578 3097 1268 2742 
Q 959 2388 959 1747 
Q 959 1106 1268 751 
Q 1578 397 2138 397 
Q 2388 397 2633 464 
Q 2878 531 3122 666 
L 3122 134 
Q 2881 22 2623 -34 
Q 2366 -91 2075 -91 
Q 1284 -91 818 406 
Q 353 903 353 1747 
Q 353 2603 823 3093 
Q 1294 3584 2113 3584 
Q 2378 3584 2631 3529 
Q 2884 3475 3122 3366 
z
" transform="scale(0.015625)"/>
      <path id="DejaVuSans-68" d="M 3513 2113 
L 3513 0 
L 2938 0 
L 2938 2094 
Q 2938 2591 2744 2837 
Q 2550 3084 2163 3084 
Q 1697 3084 1428 2787 
Q 1159 2491 1159 1978 
L 1159 0 
L 581 0 
L 581 4863 
L 1159 4863 
L 1159 2956 
Q 1366 3272 1645 3428 
Q 1925 3584 2291 3584 
Q 2894 3584 3203 3211 
Q 3513 2838 3513 2113 
z
" transform="scale(0.015625)"/>
      <path id="DejaVuSans-6c" d="M 603 4863 
L 1178 4863 
L 1178 0 
L 603 0 
L 603 4863 
z
" transform="scale(0.015625)"/>
     </defs>
     <use xlink:href="#DejaVuSans-45" transform="translate(0 0.015625)"/>
     <use xlink:href="#DejaVuSans-66" transform="translate(63.183594 0.015625)"/>
     <use xlink:href="#DejaVuSans-66" transform="translate(98.388672 0.015625)"/>
     <use xlink:href="#DejaVuSans-65" transform="translate(133.59375 0.015625)"/>
     <use xlink:href="#DejaVuSans-74" transform="translate(195.117188 0.015625)"/>
     <use xlink:href="#DejaVuSans-20" transform="translate(234.326172 0.015625)"/>
     <use xlink:href="#DejaVuSans-64" transform="translate(266.113281 0.015625)"/>
     <use xlink:href="#DejaVuSans-65" transform="translate(329.589844 0.015625)"/>
     <use xlink:href="#DejaVuSans-20" transform="translate(391.113281 0.015625)"/>
     <use xlink:href="#DejaVuSans-Oblique-3c3" transform="translate(422.900391 0.015625)"/>
     <use xlink:href="#DejaVuSans-20" transform="translate(486.279297 0.015625)"/>
     <use xlink:href="#DejaVuSans-28" transform="translate(518.066406 0.015625)"/>
     <use xlink:href="#DejaVuSans-e9" transform="translate(557.080078 0.015625)"/>
     <use xlink:href="#DejaVuSans-63" transform="translate(618.603516 0.015625)"/>
     <use xlink:href="#DejaVuSans-68" transform="translate(673.583984 0.015625)"/>
     <use xlink:href="#DejaVuSans-65" transform="translate(736.962891 0.015625)"/>
     <use xlink:href="#DejaVuSans-6c" transform="translate(798.486328 0.015625)"/>
     <use xlink:href="#DejaVuSans-6c" transform="translate(826.269531 0.015625)"/>
     <use xlink:href="#DejaVuSans-65" transform="translate(854.052734 0.015625)"/>
     <use xlink:href="#DejaVuSans-29" transform="translate(915.576172 0.015625)"/>
    </g>
   </g>
   <g id="legend_2">
    <g id="line2d_10">
     <path d="M 667.309055 34.108594 
L 676.309055 34.108594 
L 685.309055 34.108594 
" style="fill: none; stroke: #1f77b4; stroke-width: 1.5; stroke-linecap: square"/>
    </g>
    <g id="text_9">
     <!-- $\sigma$ = 1 -->
     <g transform="translate(692.509055 37.258594) scale(0.09 -0.09)">
      <defs>
       <path id="DejaVuSans-31" d="M 794 531 
L 1825 531 
L 1825 4091 
L 703 3866 
L 703 4441 
L 1819 4666 
L 2450 4666 
L 2450 531 
L 3481 531 
L 3481 0 
L 794 0 
L 794 531 
z
" transform="scale(0.015625)"/>
      </defs>
      <use xlink:href="#DejaVuSans-Oblique-3c3" transform="translate(0 0.09375)"/>
      <use xlink:href="#DejaVuSans-20" transform="translate(63.378906 0.09375)"/>
      <use xlink:href="#DejaVuSans-3d" transform="translate(95.166016 0.09375)"/>
      <use xlink:href="#DejaVuSans-20" transform="translate(178.955078 0.09375)"/>
      <use xlink:href="#DejaVuSans-31" transform="translate(210.742188 0.09375)"/>
     </g>
    </g>
    <g id="line2d_11">
     <path d="M 667.309055 47.318906 
L 676.309055 47.318906 
L 685.309055 47.318906 
" style="fill: none; stroke: #ff7f0e; stroke-width: 1.5; stroke-linecap: square"/>
    </g>
    <g id="text_10">
     <!-- $\sigma$ = 2 -->
     <g transform="translate(692.509055 50.468906) scale(0.09 -0.09)">
      <defs>
       <path id="DejaVuSans-32" d="M 1228 531 
L 3431 531 
L 3431 0 
L 469 0 
L 469 531 
Q 828 903 1448 1529 
Q 2069 2156 2228 2338 
Q 2531 2678 2651 2914 
Q 2772 3150 2772 3378 
Q 2772 3750 2511 3984 
Q 2250 4219 1831 4219 
Q 1534 4219 1204 4116 
Q 875 4013 500 3803 
L 500 4441 
Q 881 4594 1212 4672 
Q 1544 4750 1819 4750 
Q 2544 4750 2975 4387 
Q 3406 4025 3406 3419 
Q 3406 3131 3298 2873 
Q 3191 2616 2906 2266 
Q 2828 2175 2409 1742 
Q 1991 1309 1228 531 
z
" transform="scale(0.015625)"/>
      </defs>
      <use xlink:href="#DejaVuSans-Oblique-3c3" transform="translate(0 0.78125)"/>
      <use xlink:href="#DejaVuSans-20" transform="translate(63.378906 0.78125)"/>
      <use xlink:href="#DejaVuSans-3d" transform="translate(95.166016 0.78125)"/>
      <use xlink:href="#DejaVuSans-20" transform="translate(178.955078 0.78125)"/>
      <use xlink:href="#DejaVuSans-32" transform="translate(210.742188 0.78125)"/>
     </g>
    </g>
    <g id="line2d_12">
     <path d="M 667.309055 60.529219 
L 676.309055 60.529219 
L 685.309055 60.529219 
" style="fill: none; stroke: #2ca02c; stroke-width: 1.5; stroke-linecap: square"/>
    </g>
    <g id="text_11">
     <!-- $\sigma$ = 4 -->
     <g transform="translate(692.509055 63.679219) scale(0.09 -0.09)">
      <defs>
       <path id="DejaVuSans-34" d="M 2419 4116 
L 825 1625 
L 2419 1625 
L 2419 4116 
z
M 2253 4666 
L 3047 4666 
L 3047 1625 
L 3713 1625 
L 3713 1100 
L 3047 1100 
L 3047 0 
L 2419 0 
L 2419 1100 
L 313 1100 
L 313 1709 
L 2253 4666 
z
" transform="scale(0.015625)"/>
      </defs>
      <use xlink:href="#DejaVuSans-Oblique-3c3" transform="translate(0 0.09375)"/>
      <use xlink:href="#DejaVuSans-20" transform="translate(63.378906 0.09375)"/>
      <use xlink:href="#DejaVuSans-3d" transform="translate(95.166016 0.09375)"/>
      <use xlink:href="#DejaVuSans-20" transform="translate(178.955078 0.09375)"/>
      <use xlink:href="#DejaVuSans-34" transform="translate(210.742188 0.09375)"/>
     </g>
    </g>
   </g>
  </g>
  <g id="axes_3">
   <g id="patch_8">
    <path d="M 732.559055 275.521395 
L 1081.19952 275.521395 
L 1081.19952 22.32 
L 732.559055 22.32 
z
" style="fill: #ffffff"/>
   </g>
   <g id="matplotlib.axis_5">
    <g id="text_12">
     <!-- x -->
     <g transform="translate(903.919912 287.119832) scale(0.1 -0.1)">
      <use xlink:href="#DejaVuSans-78"/>
     </g>
    </g>
   </g>
   <g id="matplotlib.axis_6"/>
   <g id="line2d_13">
    <path d="M 748.406349 264.003252 
L 767.124874 263.868924 
L 775.056453 263.603118 
L 780.449926 263.21221 
L 784.574347 262.707117 
L 788.064241 262.068784 
L 791.236873 261.25645 
L 794.092241 260.27779 
L 796.630346 259.160141 
L 798.851188 257.950196 
L 801.07203 256.484162 
L 803.292872 254.720136 
L 805.196451 252.936399 
L 807.10003 250.869456 
L 809.003609 248.487018 
L 810.907188 245.755662 
L 812.810766 242.641344 
L 814.714345 239.110029 
L 816.617924 235.128445 
L 818.521503 230.664965 
L 820.425082 225.690616 
L 822.645924 219.208173 
L 824.866766 211.965053 
L 827.087608 203.94213 
L 829.30845 195.135346 
L 831.846555 184.129529 
L 834.701923 170.616661 
L 837.874554 154.366577 
L 841.681712 133.568731 
L 851.516869 79.069389 
L 854.054975 66.569498 
L 856.275817 56.78662 
L 858.179395 49.487773 
L 859.765711 44.309515 
L 861.034764 40.832367 
L 862.303816 38.00154 
L 863.255606 36.331717 
L 864.207395 35.072063 
L 865.159185 34.240969 
L 865.793711 33.933571 
L 866.428237 33.829154 
L 867.062763 33.932264 
L 867.69729 34.247167 
L 868.331816 34.77783 
L 868.966342 35.527913 
L 869.918132 37.071643 
L 870.869921 39.126277 
L 871.82171 41.699787 
L 873.090763 45.948461 
L 874.359816 51.13893 
L 875.628868 57.273395 
L 877.215184 66.261242 
L 878.8015 76.691841 
L 880.387815 88.523354 
L 882.291394 104.485861 
L 884.194973 122.245118 
L 886.415815 145.009171 
L 888.95392 173.325378 
L 892.126551 211.34503 
L 896.250972 263.206379 
L 896.568235 264.012241 
L 1065.352226 264.012241 
L 1065.352226 264.012241 
" clip-path="url(#pbc2ba9856b)" style="fill: none; stroke: #1f77b4; stroke-width: 1.5; stroke-linecap: square"/>
   </g>
   <g id="line2d_14">
    <path d="M 748.406349 264.012241 
L 803.610135 263.902779 
L 806.14824 263.679459 
L 808.051819 263.313688 
L 809.638135 262.785701 
L 810.907188 262.151153 
L 812.17624 261.265765 
L 813.445293 260.063921 
L 814.714345 258.474412 
L 815.983398 256.423293 
L 817.25245 253.837431 
L 818.521503 250.64852 
L 819.790555 246.797275 
L 821.059608 242.237471 
L 822.328661 236.939516 
L 823.914976 229.265628 
L 825.501292 220.451418 
L 827.404871 208.486921 
L 829.625713 192.924878 
L 832.798344 168.734362 
L 838.191818 127.336751 
L 840.41266 112.012889 
L 842.316238 100.302467 
L 843.902554 91.739654 
L 845.48887 84.374264 
L 846.757922 79.38916 
L 848.026975 75.230323 
L 849.296028 71.902062 
L 850.247817 69.946744 
L 851.199606 68.447339 
L 852.151396 67.393632 
L 853.103185 66.772747 
L 853.737711 66.591866 
L 854.372238 66.591643 
L 855.006764 66.766737 
L 855.64129 67.111506 
L 856.59308 67.933836 
L 857.544869 69.103824 
L 858.496659 70.599869 
L 859.765711 73.063474 
L 861.034764 76.014112 
L 862.621079 80.306222 
L 864.524658 86.207819 
L 866.7455 93.915743 
L 869.600869 104.748736 
L 874.042552 122.669092 
L 880.705078 149.476047 
L 884.512236 163.786936 
L 887.684868 174.868 
L 890.540236 184.105817 
L 893.395604 192.618963 
L 896.250972 200.406144 
L 898.789077 206.732136 
L 901.327183 212.518598 
L 903.865288 217.791843 
L 906.403393 222.581778 
L 908.941498 226.920334 
L 911.479603 230.840257 
L 914.017708 234.374201 
L 916.555813 237.554049 
L 919.093918 240.410443 
L 921.949287 243.273401 
L 924.804655 245.802477 
L 927.660023 248.033408 
L 930.515391 249.998893 
L 933.688023 251.907473 
L 936.860654 253.56156 
L 940.350549 255.125805 
L 944.157706 256.570371 
L 948.282127 257.874722 
L 952.723811 259.027389 
L 957.482758 260.025121 
L 962.876232 260.918132 
L 968.904231 261.68274 
L 975.884021 262.336006 
L 984.132862 262.876628 
L 994.285283 263.309312 
L 1007.610335 263.637873 
L 1026.32886 263.857807 
L 1058.055174 263.977826 
L 1065.352226 263.987875 
L 1065.352226 263.987875 
" clip-path="url(#pbc2ba9856b)" style="fill: none; stroke: #ff7f0e; stroke-width: 1.5; stroke-linecap: square"/>
   </g>
   <g id="line2d_15">
    <path d="M 748.406349 264.012241 
L 823.597713 263.945633 
L 824.549503 263.679181 
L 825.184029 263.216996 
L 825.818555 262.341617 
L 826.453081 260.85499 
L 827.087608 258.548821 
L 827.722134 255.232041 
L 828.35666 250.756107 
L 829.30845 241.69552 
L 830.260239 229.841006 
L 831.529292 210.280378 
L 833.43287 175.852365 
L 836.288239 123.563904 
L 837.874554 98.719378 
L 839.143607 82.156175 
L 840.41266 68.774426 
L 841.364449 60.811926 
L 842.316238 54.547365 
L 843.268028 49.871395 
L 843.902554 47.572835 
L 844.53708 45.88101 
L 845.171607 44.753252 
L 845.806133 44.146699 
L 846.440659 44.018976 
L 847.075186 44.328722 
L 847.709712 45.035998 
L 848.344238 46.102575 
L 849.296028 48.297267 
L 850.247817 51.105353 
L 851.516869 55.627085 
L 853.103185 62.232874 
L 855.324027 72.654663 
L 859.131185 91.904973 
L 863.890132 115.64458 
L 867.062763 130.296005 
L 869.918132 142.425053 
L 872.456237 152.323166 
L 874.994342 161.40074 
L 877.532447 169.693013 
L 880.070552 177.248392 
L 882.608657 184.121515 
L 885.146762 190.368807 
L 887.684868 196.045735 
L 890.222973 201.205172 
L 892.761078 205.896523 
L 895.299183 210.165314 
L 898.154551 214.514201 
L 901.009919 218.434079 
L 903.865288 221.972408 
L 906.720656 225.171273 
L 909.893287 228.372559 
L 913.065919 231.245413 
L 916.23855 233.828832 
L 919.728445 236.376671 
L 923.218339 238.654354 
L 927.025497 240.870344 
L 931.149918 242.996374 
L 935.274339 244.875783 
L 939.716023 246.662633 
L 944.47497 248.34335 
L 949.868443 250.000294 
L 955.57918 251.513596 
L 961.924442 252.953577 
L 968.904231 254.296306 
L 976.518547 255.527076 
L 985.084652 256.677828 
L 994.602546 257.727026 
L 1005.389493 258.689473 
L 1017.762755 259.567665 
L 1032.35686 260.373292 
L 1049.489069 261.089924 
L 1065.352226 261.595566 
L 1065.352226 261.595566 
" clip-path="url(#pbc2ba9856b)" style="fill: none; stroke: #2ca02c; stroke-width: 1.5; stroke-linecap: square"/>
   </g>
   <g id="patch_9">
    <path d="M 732.559055 275.521395 
L 732.559055 22.32 
" style="fill: none; stroke: #000000; stroke-width: 0.8; stroke-linejoin: miter; stroke-linecap: square"/>
   </g>
   <g id="patch_10">
    <path d="M 732.559055 275.521395 
L 1081.19952 275.521395 
" style="fill: none; stroke: #000000; stroke-width: 0.8; stroke-linejoin: miter; stroke-linecap: square"/>
   </g>
   <g id="text_13">
    <!-- Effet de $\xi$ (forme) -->
    <g transform="translate(974.99952 16.32) scale(0.12 -0.12)">
     <defs>
      <path id="DejaVuSans-Oblique-3be" d="M 2016 397 
Q 2428 394 2628 159 
Q 2844 -88 2772 -463 
Q 2700 -822 2422 -1072 
Q 2119 -1344 1609 -1344 
Q 1656 -1109 1700 -872 
Q 1913 -888 2072 -750 
Q 2194 -641 2216 -525 
Q 2247 -359 2175 -222 
Q 2100 -91 1922 -91 
Q -25 -91 241 1275 
Q 422 2213 1516 2488 
Q 663 2600 822 3413 
Q 941 4028 1678 4284 
L 1028 4284 
L 1141 4863 
L 3606 4863 
L 3494 4284 
Q 1528 4284 1350 3375 
Q 1234 2778 2881 2750 
L 2778 2219 
Q 1009 2288 819 1275 
Q 659 428 2016 397 
z
" transform="scale(0.015625)"/>
      <path id="DejaVuSans-72" d="M 2631 2963 
Q 2534 3019 2420 3045 
Q 2306 3072 2169 3072 
Q 1681 3072 1420 2755 
Q 1159 2438 1159 1844 
L 1159 0 
L 581 0 
L 581 3500 
L 1159 3500 
L 1159 2956 
Q 1341 3275 1631 3429 
Q 1922 3584 2338 3584 
Q 2397 3584 2469 3576 
Q 2541 3569 2628 3553 
L 2631 2963 
z
" transform="scale(0.015625)"/>
      <path id="DejaVuSans-6d" d="M 3328 2828 
Q 3544 3216 3844 3400 
Q 4144 3584 4550 3584 
Q 5097 3584 5394 3201 
Q 5691 2819 5691 2113 
L 5691 0 
L 5113 0 
L 5113 2094 
Q 5113 2597 4934 2840 
Q 4756 3084 4391 3084 
Q 3944 3084 3684 2787 
Q 3425 2491 3425 1978 
L 3425 0 
L 2847 0 
L 2847 2094 
Q 2847 2600 2669 2842 
Q 2491 3084 2119 3084 
Q 1678 3084 1418 2786 
Q 1159 2488 1159 1978 
L 1159 0 
L 581 0 
L 581 3500 
L 1159 3500 
L 1159 2956 
Q 1356 3278 1631 3431 
Q 1906 3584 2284 3584 
Q 2666 3584 2933 3390 
Q 3200 3197 3328 2828 
z
" transform="scale(0.015625)"/>
     </defs>
     <use xlink:href="#DejaVuSans-45" transform="translate(0 0.015625)"/>
     <use xlink:href="#DejaVuSans-66" transform="translate(63.183594 0.015625)"/>
     <use xlink:href="#DejaVuSans-66" transform="translate(98.388672 0.015625)"/>
     <use xlink:href="#DejaVuSans-65" transform="translate(133.59375 0.015625)"/>
     <use xlink:href="#DejaVuSans-74" transform="translate(195.117188 0.015625)"/>
     <use xlink:href="#DejaVuSans-20" transform="translate(234.326172 0.015625)"/>
     <use xlink:href="#DejaVuSans-64" transform="translate(266.113281 0.015625)"/>
     <use xlink:href="#DejaVuSans-65" transform="translate(329.589844 0.015625)"/>
     <use xlink:href="#DejaVuSans-20" transform="translate(391.113281 0.015625)"/>
     <use xlink:href="#DejaVuSans-Oblique-3be" transform="translate(422.900391 0.015625)"/>
     <use xlink:href="#DejaVuSans-20" transform="translate(478.662109 0.015625)"/>
     <use xlink:href="#DejaVuSans-28" transform="translate(510.449219 0.015625)"/>
     <use xlink:href="#DejaVuSans-66" transform="translate(549.462891 0.015625)"/>
     <use xlink:href="#DejaVuSans-6f" transform="translate(584.667969 0.015625)"/>
     <use xlink:href="#DejaVuSans-72" transform="translate(645.849609 0.015625)"/>
     <use xlink:href="#DejaVuSans-6d" transform="translate(686.962891 0.015625)"/>
     <use xlink:href="#DejaVuSans-65" transform="translate(784.375 0.015625)"/>
     <use xlink:href="#DejaVuSans-29" transform="translate(845.898438 0.015625)"/>
    </g>
   </g>
   <g id="legend_3">
    <g id="line2d_16">
     <path d="M 1011.98952 34.11 
L 1020.98952 34.11 
L 1029.98952 34.11 
" style="fill: none; stroke: #1f77b4; stroke-width: 1.5; stroke-linecap: square"/>
    </g>
    <g id="text_14">
     <!-- $\xi$ = -0.5 -->
     <g transform="translate(1037.18952 37.26) scale(0.09 -0.09)">
      <defs>
       <path id="DejaVuSans-2e" d="M 684 794 
L 1344 794 
L 1344 0 
L 684 0 
L 684 794 
z
" transform="scale(0.015625)"/>
      </defs>
      <use xlink:href="#DejaVuSans-Oblique-3be" transform="translate(0 0.015625)"/>
      <use xlink:href="#DejaVuSans-20" transform="translate(55.761719 0.015625)"/>
      <use xlink:href="#DejaVuSans-3d" transform="translate(87.548828 0.015625)"/>
      <use xlink:href="#DejaVuSans-20" transform="translate(171.337891 0.015625)"/>
      <use xlink:href="#DejaVuSans-2d" transform="translate(203.125 0.015625)"/>
      <use xlink:href="#DejaVuSans-30" transform="translate(239.208984 0.015625)"/>
      <use xlink:href="#DejaVuSans-2e" transform="translate(302.832031 0.015625)"/>
      <use xlink:href="#DejaVuSans-35" transform="translate(334.619141 0.015625)"/>
     </g>
    </g>
    <g id="line2d_17">
     <path d="M 1011.98952 47.34 
L 1020.98952 47.34 
L 1029.98952 47.34 
" style="fill: none; stroke: #ff7f0e; stroke-width: 1.5; stroke-linecap: square"/>
    </g>
    <g id="text_15">
     <!-- $\xi$ = 0.0 -->
     <g transform="translate(1037.18952 50.49) scale(0.09 -0.09)">
      <use xlink:href="#DejaVuSans-Oblique-3be" transform="translate(0 0.015625)"/>
      <use xlink:href="#DejaVuSans-20" transform="translate(55.761719 0.015625)"/>
      <use xlink:href="#DejaVuSans-3d" transform="translate(87.548828 0.015625)"/>
      <use xlink:href="#DejaVuSans-20" transform="translate(171.337891 0.015625)"/>
      <use xlink:href="#DejaVuSans-30" transform="translate(203.125 0.015625)"/>
      <use xlink:href="#DejaVuSans-2e" transform="translate(266.748047 0.015625)"/>
      <use xlink:href="#DejaVuSans-30" transform="translate(298.535156 0.015625)"/>
     </g>
    </g>
    <g id="line2d_18">
     <path d="M 1011.98952 60.57 
L 1020.98952 60.57 
L 1029.98952 60.57 
" style="fill: none; stroke: #2ca02c; stroke-width: 1.5; stroke-linecap: square"/>
    </g>
    <g id="text_16">
     <!-- $\xi$ = 0.5 -->
     <g transform="translate(1037.18952 63.72) scale(0.09 -0.09)">
      <use xlink:href="#DejaVuSans-Oblique-3be" transform="translate(0 0.015625)"/>
      <use xlink:href="#DejaVuSans-20" transform="translate(55.761719 0.015625)"/>
      <use xlink:href="#DejaVuSans-3d" transform="translate(87.548828 0.015625)"/>
      <use xlink:href="#DejaVuSans-20" transform="translate(171.337891 0.015625)"/>
      <use xlink:href="#DejaVuSans-30" transform="translate(203.125 0.015625)"/>
      <use xlink:href="#DejaVuSans-2e" transform="translate(266.748047 0.015625)"/>
      <use xlink:href="#DejaVuSans-35" transform="translate(298.535156 0.015625)"/>
     </g>
    </g>
   </g>
  </g>
 </g>
 <defs>
  <clipPath id="p7ef66b2eb7">
   <rect x="20.878125" y="22.32" width="348.640465" height="253.201395"/>
  </clipPath>
  <clipPath id="p371dd103b4">
   <rect x="376.71859" y="22.32" width="348.640465" height="253.201395"/>
  </clipPath>
  <clipPath id="pbc2ba9856b">
   <rect x="732.559055" y="22.32" width="348.640465" height="253.201395"/>
  </clipPath>
 </defs>
</svg>
