<?xml version="1.0" encoding="utf-8" standalone="no"?>
<!DOCTYPE svg PUBLIC "-//W3C//DTD SVG 1.1//EN"
  "http://www.w3.org/Graphics/SVG/1.1/DTD/svg11.dtd">
<svg xmlns:xlink="http://www.w3.org/1999/xlink" width="1088.39952pt" height="296.39952pt" viewBox="0 0 1088.39952 296.39952" xmlns="http://www.w3.org/2000/svg" version="1.1">
 <metadata>
  <rdf:RDF xmlns:dc="http://purl.org/dc/elements/1.1/" xmlns:cc="http://creativecommons.org/ns#" xmlns:rdf="http://www.w3.org/1999/02/22-rdf-syntax-ns#">
   <cc:Work>
    <dc:type rdf:resource="http://purl.org/dc/dcmitype/StillImage"/>
    <dc:date>2025-06-27T15:45:25.120675</dc:date>
    <dc:format>image/svg+xml</dc:format>
    <dc:creator>
     <cc:Agent>
      <dc:title>Matplotlib v3.10.1, https://matplotlib.org/</dc:title>
     </cc:Agent>
    </dc:creator>
   </cc:Work>
  </rdf:RDF>
 </metadata>
 <defs>
  <style type="text/css">*{stroke-linejoin: round; stroke-linecap: butt}</style>
 </defs>
 <g id="figure_1">
  <g id="patch_1">
   <path d="M 0 296.39952 
L 1088.39952 296.39952 
L 1088.39952 0 
L 0 0 
z
" style="fill: #ffffff"/>
  </g>
  <g id="axes_1">
   <g id="patch_2">
    <path d="M 26.685 269.71452 
L 373.38984 269.71452 
L 373.38984 27.792 
L 26.685 27.792 
z
" style="fill: #ffffff"/>
   </g>
   <g id="matplotlib.axis_1">
    <g id="text_1">
     <!-- x -->
     <g transform="translate(195.30242 285.87202) scale(0.16 -0.16)">
      <defs>
       <path id="DejaVuSans-78" d="M 3513 3500 
L 2247 1797 
L 3578 0 
L 2900 0 
L 1881 1375 
L 863 0 
L 184 0 
L 1544 1831 
L 300 3500 
L 978 3500 
L 1906 2253 
L 2834 3500 
L 3513 3500 
z
" transform="scale(0.015625)"/>
      </defs>
      <use xlink:href="#DejaVuSans-78"/>
     </g>
    </g>
   </g>
   <g id="matplotlib.axis_2">
    <g id="text_2">
     <!-- Densité -->
     <g transform="translate(19.3575 179.35451) rotate(-90) scale(0.16 -0.16)">
      <defs>
       <path id="DejaVuSans-44" d="M 1259 4147 
L 1259 519 
L 2022 519 
Q 2988 519 3436 956 
Q 3884 1394 3884 2338 
Q 3884 3275 3436 3711 
Q 2988 4147 2022 4147 
L 1259 4147 
z
M 628 4666 
L 1925 4666 
Q 3281 4666 3915 4102 
Q 4550 3538 4550 2338 
Q 4550 1131 3912 565 
Q 3275 0 1925 0 
L 628 0 
L 628 4666 
z
" transform="scale(0.015625)"/>
       <path id="DejaVuSans-65" d="M 3597 1894 
L 3597 1613 
L 953 1613 
Q 991 1019 1311 708 
Q 1631 397 2203 397 
Q 2534 397 2845 478 
Q 3156 559 3463 722 
L 3463 178 
Q 3153 47 2828 -22 
Q 2503 -91 2169 -91 
Q 1331 -91 842 396 
Q 353 884 353 1716 
Q 353 2575 817 3079 
Q 1281 3584 2069 3584 
Q 2775 3584 3186 3129 
Q 3597 2675 3597 1894 
z
M 3022 2063 
Q 3016 2534 2758 2815 
Q 2500 3097 2075 3097 
Q 1594 3097 1305 2825 
Q 1016 2553 972 2059 
L 3022 2063 
z
" transform="scale(0.015625)"/>
       <path id="DejaVuSans-6e" d="M 3513 2113 
L 3513 0 
L 2938 0 
L 2938 2094 
Q 2938 2591 2744 2837 
Q 2550 3084 2163 3084 
Q 1697 3084 1428 2787 
Q 1159 2491 1159 1978 
L 1159 0 
L 581 0 
L 581 3500 
L 1159 3500 
L 1159 2956 
Q 1366 3272 1645 3428 
Q 1925 3584 2291 3584 
Q 2894 3584 3203 3211 
Q 3513 2838 3513 2113 
z
" transform="scale(0.015625)"/>
       <path id="DejaVuSans-73" d="M 2834 3397 
L 2834 2853 
Q 2591 2978 2328 3040 
Q 2066 3103 1784 3103 
Q 1356 3103 1142 2972 
Q 928 2841 928 2578 
Q 928 2378 1081 2264 
Q 1234 2150 1697 2047 
L 1894 2003 
Q 2506 1872 2764 1633 
Q 3022 1394 3022 966 
Q 3022 478 2636 193 
Q 2250 -91 1575 -91 
Q 1294 -91 989 -36 
Q 684 19 347 128 
L 347 722 
Q 666 556 975 473 
Q 1284 391 1588 391 
Q 1994 391 2212 530 
Q 2431 669 2431 922 
Q 2431 1156 2273 1281 
Q 2116 1406 1581 1522 
L 1381 1569 
Q 847 1681 609 1914 
Q 372 2147 372 2553 
Q 372 3047 722 3315 
Q 1072 3584 1716 3584 
Q 2034 3584 2315 3537 
Q 2597 3491 2834 3397 
z
" transform="scale(0.015625)"/>
       <path id="DejaVuSans-69" d="M 603 3500 
L 1178 3500 
L 1178 0 
L 603 0 
L 603 3500 
z
M 603 4863 
L 1178 4863 
L 1178 4134 
L 603 4134 
L 603 4863 
z
" transform="scale(0.015625)"/>
       <path id="DejaVuSans-74" d="M 1172 4494 
L 1172 3500 
L 2356 3500 
L 2356 3053 
L 1172 3053 
L 1172 1153 
Q 1172 725 1289 603 
Q 1406 481 1766 481 
L 2356 481 
L 2356 0 
L 1766 0 
Q 1100 0 847 248 
Q 594 497 594 1153 
L 594 3053 
L 172 3053 
L 172 3500 
L 594 3500 
L 594 4494 
L 1172 4494 
z
" transform="scale(0.015625)"/>
       <path id="DejaVuSans-e9" d="M 3597 1894 
L 3597 1613 
L 953 1613 
Q 991 1019 1311 708 
Q 1631 397 2203 397 
Q 2534 397 2845 478 
Q 3156 559 3463 722 
L 3463 178 
Q 3153 47 2828 -22 
Q 2503 -91 2169 -91 
Q 1331 -91 842 396 
Q 353 884 353 1716 
Q 353 2575 817 3079 
Q 1281 3584 2069 3584 
Q 2775 3584 3186 3129 
Q 3597 2675 3597 1894 
z
M 3022 2063 
Q 3016 2534 2758 2815 
Q 2500 3097 2075 3097 
Q 1594 3097 1305 2825 
Q 1016 2553 972 2059 
L 3022 2063 
z
M 2469 5119 
L 3091 5119 
L 2072 3944 
L 1594 3944 
L 2469 5119 
z
" transform="scale(0.015625)"/>
      </defs>
      <use xlink:href="#DejaVuSans-44"/>
      <use xlink:href="#DejaVuSans-65" transform="translate(77.001953 0)"/>
      <use xlink:href="#DejaVuSans-6e" transform="translate(138.525391 0)"/>
      <use xlink:href="#DejaVuSans-73" transform="translate(201.904297 0)"/>
      <use xlink:href="#DejaVuSans-69" transform="translate(254.003906 0)"/>
      <use xlink:href="#DejaVuSans-74" transform="translate(281.787109 0)"/>
      <use xlink:href="#DejaVuSans-e9" transform="translate(320.996094 0)"/>
     </g>
    </g>
   </g>
   <g id="line2d_1">
    <path d="M 42.444311 258.717768 
L 49.70085 258.614012 
L 51.909363 258.349726 
L 53.486871 257.910056 
L 54.748878 257.294832 
L 55.695383 256.613095 
L 56.641888 255.685956 
L 57.588393 254.457023 
L 58.534899 252.866779 
L 59.481404 250.854932 
L 60.427909 248.363091 
L 61.374414 245.337606 
L 62.636421 240.395254 
L 63.898428 234.343179 
L 65.160435 227.141729 
L 66.737943 216.538119 
L 68.315452 204.270312 
L 70.208462 187.68002 
L 72.732476 163.343724 
L 78.411507 107.505177 
L 80.620019 88.39838 
L 82.513029 74.154486 
L 84.090538 64.032318 
L 85.352545 57.158053 
L 86.614552 51.399684 
L 87.876559 46.759197 
L 88.823064 44.002404 
L 89.769569 41.850958 
L 90.716074 40.286505 
L 91.347077 39.558827 
L 91.978081 39.074866 
L 92.609084 38.826718 
L 93.240088 38.806027 
L 93.871091 39.004069 
L 94.502095 39.411823 
L 95.4486 40.396388 
L 96.395105 41.800128 
L 97.34161 43.59083 
L 98.603617 46.524748 
L 99.865624 50.014113 
L 101.443133 55.045929 
L 103.336143 61.889121 
L 105.544655 70.71225 
L 108.699672 84.320066 
L 119.742232 132.923737 
L 123.212751 146.76488 
L 126.367768 158.398954 
L 129.207284 168.051051 
L 132.046799 176.922174 
L 134.886315 185.02944 
L 137.72583 192.404664 
L 140.249844 198.379029 
L 142.773858 203.840073 
L 145.297872 208.822073 
L 147.821885 213.359745 
L 150.345899 217.487346 
L 153.185415 221.681976 
L 156.02493 225.444461 
L 158.864446 228.816833 
L 161.703961 231.838011 
L 164.543477 234.543727 
L 167.382992 236.966573 
L 170.538009 239.362725 
L 173.693026 241.482526 
L 177.163545 243.533698 
L 180.634064 245.327668 
L 184.420085 247.030315 
L 188.521607 248.617182 
L 192.938631 250.071527 
L 197.671157 251.383834 
L 202.719185 252.550973 
L 208.398216 253.629363 
L 214.70825 254.593734 
L 221.96479 255.464696 
L 230.167834 256.21598 
L 239.632886 256.856668 
L 251.306449 257.41243 
L 265.819529 257.865327 
L 284.749632 258.217351 
L 311.251776 258.47067 
L 353.844508 258.631198 
L 357.630529 258.638547 
L 357.630529 258.638547 
" clip-path="url(#p0a487af336)" style="fill: none; stroke: #1f77b4; stroke-width: 1.5; stroke-linecap: square"/>
   </g>
   <g id="line2d_2">
    <path d="M 42.444311 258.718042 
L 102.074136 258.623758 
L 104.282648 258.379291 
L 105.860157 257.968086 
L 107.122163 257.388293 
L 108.068669 256.742301 
L 109.015174 255.859865 
L 109.961679 254.685305 
L 110.908184 253.159478 
L 111.854689 251.22204 
L 112.801194 248.814086 
L 113.7477 245.880981 
L 115.009706 241.07245 
L 116.271713 235.16216 
L 117.53372 228.105006 
L 118.795727 219.901549 
L 120.373236 208.113804 
L 122.266246 191.99286 
L 124.474758 171.138756 
L 132.046799 97.653091 
L 133.93981 82.200426 
L 135.517318 70.943924 
L 137.094827 61.324738 
L 138.356834 54.867324 
L 139.618841 49.529055 
L 140.880848 45.304154 
L 141.827353 42.852062 
L 142.773858 40.996663 
L 143.720363 39.7176 
L 144.351366 39.173432 
L 144.98237 38.867098 
L 145.613373 38.790348 
L 146.244377 38.934542 
L 146.87538 39.290727 
L 147.506384 39.849705 
L 148.452889 41.04787 
L 149.399394 42.649126 
L 150.661401 45.355432 
L 151.923408 48.645206 
L 153.500916 53.465454 
L 155.393927 60.106968 
L 157.602439 68.760019 
L 160.441954 80.842434 
L 166.436487 107.678039 
L 171.169013 128.312592 
L 174.639532 142.474346 
L 177.794549 154.434523 
L 180.634064 164.390574 
L 183.47358 173.564393 
L 186.313095 181.965609 
L 189.152611 189.621035 
L 191.676624 195.830385 
L 194.200638 201.511854 
L 196.724652 206.699166 
L 199.248666 211.426972 
L 201.772679 215.729822 
L 204.296693 219.641423 
L 207.136209 223.614539 
L 209.975724 227.176904 
L 212.81524 230.369013 
L 215.654755 233.228192 
L 218.494271 235.788592 
L 221.649288 238.320737 
L 224.804305 240.560652 
L 227.959322 242.54252 
L 231.429841 244.46065 
L 235.215862 246.280517 
L 239.001882 247.854698 
L 243.103405 249.322622 
L 247.520429 250.668813 
L 252.252955 251.884421 
L 257.616484 253.027645 
L 263.611017 254.066138 
L 270.236553 254.980796 
L 277.808594 255.794077 
L 286.642642 256.508145 
L 297.054199 257.115796 
L 309.674268 257.620131 
L 325.764855 258.027926 
L 347.218972 258.335703 
L 357.630529 258.427824 
L 357.630529 258.427824 
" clip-path="url(#p0a487af336)" style="fill: none; stroke: #ff7f0e; stroke-width: 1.5; stroke-linecap: square"/>
   </g>
   <g id="line2d_3">
    <path d="M 42.444311 258.718042 
L 154.762923 258.614012 
L 156.971435 258.349726 
L 158.548944 257.910056 
L 159.810951 257.294832 
L 160.757456 256.613095 
L 161.703961 255.685956 
L 162.650466 254.457023 
L 163.596971 252.866779 
L 164.543477 250.854932 
L 165.489982 248.363091 
L 166.436487 245.337606 
L 167.698494 240.395254 
L 168.960501 234.343179 
L 170.222507 227.141729 
L 171.800016 216.538119 
L 173.377525 204.270312 
L 175.270535 187.68002 
L 177.794549 163.343724 
L 183.47358 107.505177 
L 185.682092 88.39838 
L 187.575102 74.154486 
L 189.152611 64.032318 
L 190.414618 57.158053 
L 191.676624 51.399684 
L 192.938631 46.759197 
L 193.885136 44.002404 
L 194.831642 41.850958 
L 195.778147 40.286505 
L 196.40915 39.558827 
L 197.040154 39.074866 
L 197.671157 38.826718 
L 198.302161 38.806027 
L 198.933164 39.004069 
L 199.564167 39.411823 
L 200.510673 40.396388 
L 201.457178 41.800128 
L 202.403683 43.59083 
L 203.66569 46.524748 
L 204.927697 50.014113 
L 206.505205 55.045929 
L 208.398216 61.889121 
L 210.606728 70.71225 
L 213.761745 84.320066 
L 224.804305 132.923737 
L 228.274824 146.76488 
L 231.429841 158.398954 
L 234.269357 168.051051 
L 237.108872 176.922174 
L 239.948388 185.02944 
L 242.787903 192.404664 
L 245.311917 198.379029 
L 247.835931 203.840073 
L 250.359944 208.822073 
L 252.883958 213.359745 
L 255.407972 217.487346 
L 258.247487 221.681976 
L 261.087003 225.444461 
L 263.926518 228.816833 
L 266.766034 231.838011 
L 269.605549 234.543727 
L 272.445065 236.966573 
L 275.600082 239.362725 
L 278.755099 241.482526 
L 282.225618 243.533698 
L 285.696137 245.327668 
L 289.482158 247.030315 
L 293.58368 248.617182 
L 298.000704 250.071527 
L 302.73323 251.383834 
L 307.781257 252.550973 
L 313.460288 253.629363 
L 319.770323 254.593734 
L 327.026862 255.464696 
L 335.229907 256.21598 
L 344.694959 256.856668 
L 356.368522 257.41243 
L 357.630529 257.460719 
L 357.630529 257.460719 
" clip-path="url(#p0a487af336)" style="fill: none; stroke: #2ca02c; stroke-width: 1.5; stroke-linecap: square"/>
   </g>
   <g id="patch_3">
    <path d="M 26.685 269.71452 
L 26.685 27.792 
" style="fill: none; stroke: #000000; stroke-width: 0.8; stroke-linejoin: miter; stroke-linecap: square"/>
   </g>
   <g id="patch_4">
    <path d="M 26.685 269.71452 
L 373.38984 269.71452 
" style="fill: none; stroke: #000000; stroke-width: 0.8; stroke-linejoin: miter; stroke-linecap: square"/>
   </g>
   <g id="text_3">
    <!-- Effet de $\mu$ (position) -->
    <g transform="translate(182.73384 21.792) scale(0.192 -0.192)">
     <defs>
      <path id="DejaVuSans-45" d="M 628 4666 
L 3578 4666 
L 3578 4134 
L 1259 4134 
L 1259 2753 
L 3481 2753 
L 3481 2222 
L 1259 2222 
L 1259 531 
L 3634 531 
L 3634 0 
L 628 0 
L 628 4666 
z
" transform="scale(0.015625)"/>
      <path id="DejaVuSans-66" d="M 2375 4863 
L 2375 4384 
L 1825 4384 
Q 1516 4384 1395 4259 
Q 1275 4134 1275 3809 
L 1275 3500 
L 2222 3500 
L 2222 3053 
L 1275 3053 
L 1275 0 
L 697 0 
L 697 3053 
L 147 3053 
L 147 3500 
L 697 3500 
L 697 3744 
Q 697 4328 969 4595 
Q 1241 4863 1831 4863 
L 2375 4863 
z
" transform="scale(0.015625)"/>
      <path id="DejaVuSans-20" transform="scale(0.015625)"/>
      <path id="DejaVuSans-64" d="M 2906 2969 
L 2906 4863 
L 3481 4863 
L 3481 0 
L 2906 0 
L 2906 525 
Q 2725 213 2448 61 
Q 2172 -91 1784 -91 
Q 1150 -91 751 415 
Q 353 922 353 1747 
Q 353 2572 751 3078 
Q 1150 3584 1784 3584 
Q 2172 3584 2448 3432 
Q 2725 3281 2906 2969 
z
M 947 1747 
Q 947 1113 1208 752 
Q 1469 391 1925 391 
Q 2381 391 2643 752 
Q 2906 1113 2906 1747 
Q 2906 2381 2643 2742 
Q 2381 3103 1925 3103 
Q 1469 3103 1208 2742 
Q 947 2381 947 1747 
z
" transform="scale(0.015625)"/>
      <path id="DejaVuSans-Oblique-3bc" d="M -84 -1331 
L 856 3500 
L 1434 3500 
L 1009 1322 
Q 997 1256 987 1175 
Q 978 1094 978 1013 
Q 978 722 1161 565 
Q 1344 409 1684 409 
Q 2147 409 2431 671 
Q 2716 934 2816 1459 
L 3213 3500 
L 3788 3500 
L 3266 809 
Q 3253 750 3248 706 
Q 3244 663 3244 628 
Q 3244 531 3283 486 
Q 3322 441 3406 441 
Q 3438 441 3492 456 
Q 3547 472 3647 513 
L 3559 50 
Q 3422 -19 3297 -55 
Q 3172 -91 3053 -91 
Q 2847 -91 2730 40 
Q 2613 172 2613 403 
Q 2438 153 2195 31 
Q 1953 -91 1625 -91 
Q 1334 -91 1117 43 
Q 900 178 831 397 
L 494 -1331 
L -84 -1331 
z
" transform="scale(0.015625)"/>
      <path id="DejaVuSans-28" d="M 1984 4856 
Q 1566 4138 1362 3434 
Q 1159 2731 1159 2009 
Q 1159 1288 1364 580 
Q 1569 -128 1984 -844 
L 1484 -844 
Q 1016 -109 783 600 
Q 550 1309 550 2009 
Q 550 2706 781 3412 
Q 1013 4119 1484 4856 
L 1984 4856 
z
" transform="scale(0.015625)"/>
      <path id="DejaVuSans-70" d="M 1159 525 
L 1159 -1331 
L 581 -1331 
L 581 3500 
L 1159 3500 
L 1159 2969 
Q 1341 3281 1617 3432 
Q 1894 3584 2278 3584 
Q 2916 3584 3314 3078 
Q 3713 2572 3713 1747 
Q 3713 922 3314 415 
Q 2916 -91 2278 -91 
Q 1894 -91 1617 61 
Q 1341 213 1159 525 
z
M 3116 1747 
Q 3116 2381 2855 2742 
Q 2594 3103 2138 3103 
Q 1681 3103 1420 2742 
Q 1159 2381 1159 1747 
Q 1159 1113 1420 752 
Q 1681 391 2138 391 
Q 2594 391 2855 752 
Q 3116 1113 3116 1747 
z
" transform="scale(0.015625)"/>
      <path id="DejaVuSans-6f" d="M 1959 3097 
Q 1497 3097 1228 2736 
Q 959 2375 959 1747 
Q 959 1119 1226 758 
Q 1494 397 1959 397 
Q 2419 397 2687 759 
Q 2956 1122 2956 1747 
Q 2956 2369 2687 2733 
Q 2419 3097 1959 3097 
z
M 1959 3584 
Q 2709 3584 3137 3096 
Q 3566 2609 3566 1747 
Q 3566 888 3137 398 
Q 2709 -91 1959 -91 
Q 1206 -91 779 398 
Q 353 888 353 1747 
Q 353 2609 779 3096 
Q 1206 3584 1959 3584 
z
" transform="scale(0.015625)"/>
      <path id="DejaVuSans-29" d="M 513 4856 
L 1013 4856 
Q 1481 4119 1714 3412 
Q 1947 2706 1947 2009 
Q 1947 1309 1714 600 
Q 1481 -109 1013 -844 
L 513 -844 
Q 928 -128 1133 580 
Q 1338 1288 1338 2009 
Q 1338 2731 1133 3434 
Q 928 4138 513 4856 
z
" transform="scale(0.015625)"/>
     </defs>
     <use xlink:href="#DejaVuSans-45" transform="translate(0 0.015625)"/>
     <use xlink:href="#DejaVuSans-66" transform="translate(63.183594 0.015625)"/>
     <use xlink:href="#DejaVuSans-66" transform="translate(98.388672 0.015625)"/>
     <use xlink:href="#DejaVuSans-65" transform="translate(133.59375 0.015625)"/>
     <use xlink:href="#DejaVuSans-74" transform="translate(195.117188 0.015625)"/>
     <use xlink:href="#DejaVuSans-20" transform="translate(234.326172 0.015625)"/>
     <use xlink:href="#DejaVuSans-64" transform="translate(266.113281 0.015625)"/>
     <use xlink:href="#DejaVuSans-65" transform="translate(329.589844 0.015625)"/>
     <use xlink:href="#DejaVuSans-20" transform="translate(391.113281 0.015625)"/>
     <use xlink:href="#DejaVuSans-Oblique-3bc" transform="translate(422.900391 0.015625)"/>
     <use xlink:href="#DejaVuSans-20" transform="translate(486.523438 0.015625)"/>
     <use xlink:href="#DejaVuSans-28" transform="translate(518.310547 0.015625)"/>
     <use xlink:href="#DejaVuSans-70" transform="translate(557.324219 0.015625)"/>
     <use xlink:href="#DejaVuSans-6f" transform="translate(620.800781 0.015625)"/>
     <use xlink:href="#DejaVuSans-73" transform="translate(681.982422 0.015625)"/>
     <use xlink:href="#DejaVuSans-69" transform="translate(734.082031 0.015625)"/>
     <use xlink:href="#DejaVuSans-74" transform="translate(761.865234 0.015625)"/>
     <use xlink:href="#DejaVuSans-69" transform="translate(801.074219 0.015625)"/>
     <use xlink:href="#DejaVuSans-6f" transform="translate(828.857422 0.015625)"/>
     <use xlink:href="#DejaVuSans-6e" transform="translate(890.039062 0.015625)"/>
     <use xlink:href="#DejaVuSans-29" transform="translate(953.417969 0.015625)"/>
    </g>
   </g>
   <g id="legend_1">
    <g id="line2d_4">
     <path d="M 312.09984 39.580594 
L 321.09984 39.580594 
L 330.09984 39.580594 
" style="fill: none; stroke: #1f77b4; stroke-width: 1.5; stroke-linecap: square"/>
    </g>
    <g id="text_4">
     <!-- $\mu$ = -5 -->
     <g transform="translate(337.29984 42.730594) scale(0.09 -0.09)">
      <defs>
       <path id="DejaVuSans-3d" d="M 678 2906 
L 4684 2906 
L 4684 2381 
L 678 2381 
L 678 2906 
z
M 678 1631 
L 4684 1631 
L 4684 1100 
L 678 1100 
L 678 1631 
z
" transform="scale(0.015625)"/>
       <path id="DejaVuSans-2d" d="M 313 2009 
L 1997 2009 
L 1997 1497 
L 313 1497 
L 313 2009 
z
" transform="scale(0.015625)"/>
       <path id="DejaVuSans-35" d="M 691 4666 
L 3169 4666 
L 3169 4134 
L 1269 4134 
L 1269 2991 
Q 1406 3038 1543 3061 
Q 1681 3084 1819 3084 
Q 2600 3084 3056 2656 
Q 3513 2228 3513 1497 
Q 3513 744 3044 326 
Q 2575 -91 1722 -91 
Q 1428 -91 1123 -41 
Q 819 9 494 109 
L 494 744 
Q 775 591 1075 516 
Q 1375 441 1709 441 
Q 2250 441 2565 725 
Q 2881 1009 2881 1497 
Q 2881 1984 2565 2268 
Q 2250 2553 1709 2553 
Q 1456 2553 1204 2497 
Q 953 2441 691 2322 
L 691 4666 
z
" transform="scale(0.015625)"/>
      </defs>
      <use xlink:href="#DejaVuSans-Oblique-3bc" transform="translate(0 0.09375)"/>
      <use xlink:href="#DejaVuSans-20" transform="translate(63.623047 0.09375)"/>
      <use xlink:href="#DejaVuSans-3d" transform="translate(95.410156 0.09375)"/>
      <use xlink:href="#DejaVuSans-20" transform="translate(179.199219 0.09375)"/>
      <use xlink:href="#DejaVuSans-2d" transform="translate(210.986328 0.09375)"/>
      <use xlink:href="#DejaVuSans-35" transform="translate(247.070312 0.09375)"/>
     </g>
    </g>
    <g id="line2d_5">
     <path d="M 312.09984 52.809187 
L 321.09984 52.809187 
L 330.09984 52.809187 
" style="fill: none; stroke: #ff7f0e; stroke-width: 1.5; stroke-linecap: square"/>
    </g>
    <g id="text_5">
     <!-- $\mu$ = 0 -->
     <g transform="translate(337.29984 55.959187) scale(0.09 -0.09)">
      <defs>
       <path id="DejaVuSans-30" d="M 2034 4250 
Q 1547 4250 1301 3770 
Q 1056 3291 1056 2328 
Q 1056 1369 1301 889 
Q 1547 409 2034 409 
Q 2525 409 2770 889 
Q 3016 1369 3016 2328 
Q 3016 3291 2770 3770 
Q 2525 4250 2034 4250 
z
M 2034 4750 
Q 2819 4750 3233 4129 
Q 3647 3509 3647 2328 
Q 3647 1150 3233 529 
Q 2819 -91 2034 -91 
Q 1250 -91 836 529 
Q 422 1150 422 2328 
Q 422 3509 836 4129 
Q 1250 4750 2034 4750 
z
" transform="scale(0.015625)"/>
      </defs>
      <use xlink:href="#DejaVuSans-Oblique-3bc" transform="translate(0 0.78125)"/>
      <use xlink:href="#DejaVuSans-20" transform="translate(63.623047 0.78125)"/>
      <use xlink:href="#DejaVuSans-3d" transform="translate(95.410156 0.78125)"/>
      <use xlink:href="#DejaVuSans-20" transform="translate(179.199219 0.78125)"/>
      <use xlink:href="#DejaVuSans-30" transform="translate(210.986328 0.78125)"/>
     </g>
    </g>
    <g id="line2d_6">
     <path d="M 312.09984 66.037781 
L 321.09984 66.037781 
L 330.09984 66.037781 
" style="fill: none; stroke: #2ca02c; stroke-width: 1.5; stroke-linecap: square"/>
    </g>
    <g id="text_6">
     <!-- $\mu$ = 5 -->
     <g transform="translate(337.29984 69.187781) scale(0.09 -0.09)">
      <use xlink:href="#DejaVuSans-Oblique-3bc" transform="translate(0 0.09375)"/>
      <use xlink:href="#DejaVuSans-20" transform="translate(63.623047 0.09375)"/>
      <use xlink:href="#DejaVuSans-3d" transform="translate(95.410156 0.09375)"/>
      <use xlink:href="#DejaVuSans-20" transform="translate(179.199219 0.09375)"/>
      <use xlink:href="#DejaVuSans-35" transform="translate(210.986328 0.09375)"/>
     </g>
    </g>
   </g>
  </g>
  <g id="axes_2">
   <g id="patch_5">
    <path d="M 380.58984 269.71452 
L 727.29468 269.71452 
L 727.29468 27.792 
L 380.58984 27.792 
z
" style="fill: #ffffff"/>
   </g>
   <g id="matplotlib.axis_3">
    <g id="text_7">
     <!-- x -->
     <g transform="translate(549.20726 285.87202) scale(0.16 -0.16)">
      <use xlink:href="#DejaVuSans-78"/>
     </g>
    </g>
   </g>
   <g id="matplotlib.axis_4"/>
   <g id="line2d_7">
    <path d="M 396.349151 258.718042 
L 478.6951 258.623758 
L 479.641605 258.432328 
L 480.272608 258.16628 
L 480.903612 257.712753 
L 481.534615 256.981276 
L 482.165619 255.85984 
L 482.796622 254.218667 
L 483.427626 251.917225 
L 484.058629 248.814002 
L 484.689632 244.777986 
L 485.636138 236.746049 
L 486.582643 226.160256 
L 487.529148 213.023761 
L 488.791155 191.992293 
L 490.684165 155.448758 
L 493.523681 100.409723 
L 494.785688 79.822854 
L 496.047694 63.110956 
L 496.9942 53.42597 
L 497.940705 46.25524 
L 498.571708 42.850227 
L 499.202712 40.505528 
L 499.833715 39.171566 
L 500.149217 38.865229 
L 500.464718 38.788478 
L 500.78022 38.932673 
L 501.095722 39.288861 
L 501.726725 40.600249 
L 502.357729 42.647289 
L 503.304234 46.930266 
L 504.250739 52.442698 
L 505.512746 61.288557 
L 507.090255 74.025581 
L 509.92977 99.174073 
L 513.715791 132.269624 
L 515.924303 149.760438 
L 518.132815 165.44773 
L 520.025825 177.391687 
L 521.918835 187.981862 
L 523.811846 197.298429 
L 525.704856 205.446323 
L 527.597866 212.540796 
L 529.490877 218.698066 
L 531.383887 224.029578 
L 533.276897 228.638782 
L 535.169908 232.619571 
L 537.062918 236.055823 
L 538.955928 239.021595 
L 540.848939 241.581714 
L 542.741949 243.79256 
L 544.634959 245.702937 
L 546.843471 247.607776 
L 549.051983 249.217541 
L 551.575997 250.75663 
L 554.100011 252.030889 
L 556.939526 253.206996 
L 560.094544 254.257459 
L 563.565062 255.168523 
L 567.666585 255.993447 
L 572.399111 256.695473 
L 577.76264 257.261985 
L 584.388176 257.735454 
L 592.906722 258.113853 
L 604.580286 258.397474 
L 622.563884 258.589082 
L 656.63807 258.690479 
L 711.535369 258.714683 
L 711.535369 258.714683 
" clip-path="url(#pbd010ca384)" style="fill: none; stroke: #1f77b4; stroke-width: 1.5; stroke-linecap: square"/>
   </g>
   <g id="line2d_8">
    <path d="M 396.349151 258.718042 
L 457.240983 258.617635 
L 459.449495 258.395833 
L 461.027003 258.053162 
L 462.28901 257.597553 
L 463.551017 256.915449 
L 464.813024 255.938736 
L 466.075031 254.596227 
L 467.337038 252.819043 
L 468.599045 250.546541 
L 469.861052 247.732045 
L 471.123059 244.347698 
L 472.385065 240.387886 
L 473.962574 234.659018 
L 475.855584 226.764161 
L 478.064096 216.46721 
L 486.267141 176.830314 
L 488.160151 169.270448 
L 489.73766 163.800952 
L 491.315169 159.161142 
L 492.577175 156.072006 
L 493.839182 153.542682 
L 495.101189 151.567809 
L 496.047694 150.442212 
L 496.9942 149.611785 
L 497.940705 149.065733 
L 498.88721 148.791635 
L 499.833715 148.775776 
L 500.78022 149.003452 
L 501.726725 149.459251 
L 502.673231 150.127312 
L 503.935237 151.320426 
L 505.197244 152.824154 
L 506.774753 155.083553 
L 508.667763 158.259094 
L 510.876275 162.461052 
L 513.715791 168.403634 
L 518.448317 178.946058 
L 524.442849 192.177235 
L 528.22887 199.972763 
L 531.383887 205.99876 
L 534.538904 211.553907 
L 537.37842 216.140855 
L 540.217935 220.341499 
L 543.057451 224.169245 
L 545.896966 227.643137 
L 548.736482 230.785615 
L 551.575997 233.620845 
L 554.731014 236.440775 
L 557.886031 238.945227 
L 561.041049 241.166141 
L 564.196066 243.133467 
L 567.666585 245.037562 
L 571.452605 246.842092 
L 575.238626 248.399569 
L 579.340148 249.847268 
L 583.757173 251.169234 
L 588.489698 252.356604 
L 593.853228 253.465977 
L 599.84776 254.465719 
L 606.473296 255.338048 
L 614.045338 256.105304 
L 622.879386 256.770425 
L 633.606444 257.341965 
L 646.857517 257.809701 
L 663.894609 258.174158 
L 687.557238 258.441336 
L 711.535369 258.572932 
L 711.535369 258.572932 
" clip-path="url(#pbd010ca384)" style="fill: none; stroke: #ff7f0e; stroke-width: 1.5; stroke-linecap: square"/>
   </g>
   <g id="line2d_9">
    <path d="M 396.349151 258.717973 
L 415.910258 258.6095 
L 420.958285 258.362236 
L 424.744306 257.960014 
L 427.899323 257.398705 
L 430.738838 256.657134 
L 433.262852 255.768542 
L 435.786866 254.632291 
L 438.31088 253.225044 
L 440.834893 251.53287 
L 443.358907 249.552964 
L 445.882921 247.294472 
L 448.722436 244.447247 
L 451.877454 240.958385 
L 455.978976 236.047352 
L 469.230048 219.842132 
L 472.385065 216.458315 
L 475.224581 213.702945 
L 478.064096 211.259497 
L 480.58811 209.369296 
L 483.112124 207.754929 
L 485.636138 206.420351 
L 488.160151 205.364116 
L 490.684165 204.580127 
L 493.208179 204.058398 
L 495.732193 203.785825 
L 498.256206 203.746909 
L 500.78022 203.924428 
L 503.619736 204.359976 
L 506.459251 205.019234 
L 509.614268 205.981121 
L 513.084787 207.275994 
L 517.18631 209.064851 
L 521.918835 211.389995 
L 527.913368 214.595387 
L 553.469007 228.557277 
L 560.094544 231.774238 
L 566.404578 234.599735 
L 572.714612 237.184244 
L 579.024647 239.52977 
L 585.334681 241.64518 
L 591.960217 243.633161 
L 598.901255 245.479068 
L 606.157795 247.17373 
L 613.729836 248.713048 
L 621.932881 250.148508 
L 630.766929 251.460893 
L 640.23198 252.638759 
L 650.643537 253.707107 
L 662.317101 254.674127 
L 675.252671 255.519224 
L 690.081252 256.262261 
L 707.433847 256.904354 
L 711.535369 257.028045 
L 711.535369 257.028045 
" clip-path="url(#pbd010ca384)" style="fill: none; stroke: #2ca02c; stroke-width: 1.5; stroke-linecap: square"/>
   </g>
   <g id="patch_6">
    <path d="M 380.58984 269.71452 
L 380.58984 27.792 
" style="fill: none; stroke: #000000; stroke-width: 0.8; stroke-linejoin: miter; stroke-linecap: square"/>
   </g>
   <g id="patch_7">
    <path d="M 380.58984 269.71452 
L 727.29468 269.71452 
" style="fill: none; stroke: #000000; stroke-width: 0.8; stroke-linejoin: miter; stroke-linecap: square"/>
   </g>
   <g id="text_8">
    <!-- Effet de $\sigma$ (échelle) -->
    <g transform="translate(543.93468 21.792) scale(0.192 -0.192)">
     <defs>
      <path id="DejaVuSans-Oblique-3c3" d="M 2219 3044 
Q 1744 3044 1422 2700 
Q 1081 2341 969 1747 
Q 844 1119 1044 756 
Q 1241 397 1706 397 
Q 2166 397 2503 759 
Q 2844 1122 2966 1747 
Q 3075 2319 2881 2700 
Q 2700 3044 2219 3044 
z
M 2309 3503 
L 4219 3500 
L 4106 2925 
L 3463 2925 
Q 3706 2438 3575 1747 
Q 3406 888 2884 400 
Q 2359 -91 1609 -91 
Q 856 -91 525 400 
Q 194 888 363 1747 
Q 528 2609 1050 3097 
Q 1484 3503 2309 3503 
z
" transform="scale(0.015625)"/>
      <path id="DejaVuSans-63" d="M 3122 3366 
L 3122 2828 
Q 2878 2963 2633 3030 
Q 2388 3097 2138 3097 
Q 1578 3097 1268 2742 
Q 959 2388 959 1747 
Q 959 1106 1268 751 
Q 1578 397 2138 397 
Q 2388 397 2633 464 
Q 2878 531 3122 666 
L 3122 134 
Q 2881 22 2623 -34 
Q 2366 -91 2075 -91 
Q 1284 -91 818 406 
Q 353 903 353 1747 
Q 353 2603 823 3093 
Q 1294 3584 2113 3584 
Q 2378 3584 2631 3529 
Q 2884 3475 3122 3366 
z
" transform="scale(0.015625)"/>
      <path id="DejaVuSans-68" d="M 3513 2113 
L 3513 0 
L 2938 0 
L 2938 2094 
Q 2938 2591 2744 2837 
Q 2550 3084 2163 3084 
Q 1697 3084 1428 2787 
Q 1159 2491 1159 1978 
L 1159 0 
L 581 0 
L 581 4863 
L 1159 4863 
L 1159 2956 
Q 1366 3272 1645 3428 
Q 1925 3584 2291 3584 
Q 2894 3584 3203 3211 
Q 3513 2838 3513 2113 
z
" transform="scale(0.015625)"/>
      <path id="DejaVuSans-6c" d="M 603 4863 
L 1178 4863 
L 1178 0 
L 603 0 
L 603 4863 
z
" transform="scale(0.015625)"/>
     </defs>
     <use xlink:href="#DejaVuSans-45" transform="translate(0 0.015625)"/>
     <use xlink:href="#DejaVuSans-66" transform="translate(63.183594 0.015625)"/>
     <use xlink:href="#DejaVuSans-66" transform="translate(98.388672 0.015625)"/>
     <use xlink:href="#DejaVuSans-65" transform="translate(133.59375 0.015625)"/>
     <use xlink:href="#DejaVuSans-74" transform="translate(195.117188 0.015625)"/>
     <use xlink:href="#DejaVuSans-20" transform="translate(234.326172 0.015625)"/>
     <use xlink:href="#DejaVuSans-64" transform="translate(266.113281 0.015625)"/>
     <use xlink:href="#DejaVuSans-65" transform="translate(329.589844 0.015625)"/>
     <use xlink:href="#DejaVuSans-20" transform="translate(391.113281 0.015625)"/>
     <use xlink:href="#DejaVuSans-Oblique-3c3" transform="translate(422.900391 0.015625)"/>
     <use xlink:href="#DejaVuSans-20" transform="translate(486.279297 0.015625)"/>
     <use xlink:href="#DejaVuSans-28" transform="translate(518.066406 0.015625)"/>
     <use xlink:href="#DejaVuSans-e9" transform="translate(557.080078 0.015625)"/>
     <use xlink:href="#DejaVuSans-63" transform="translate(618.603516 0.015625)"/>
     <use xlink:href="#DejaVuSans-68" transform="translate(673.583984 0.015625)"/>
     <use xlink:href="#DejaVuSans-65" transform="translate(736.962891 0.015625)"/>
     <use xlink:href="#DejaVuSans-6c" transform="translate(798.486328 0.015625)"/>
     <use xlink:href="#DejaVuSans-6c" transform="translate(826.269531 0.015625)"/>
     <use xlink:href="#DejaVuSans-65" transform="translate(854.052734 0.015625)"/>
     <use xlink:href="#DejaVuSans-29" transform="translate(915.576172 0.015625)"/>
    </g>
   </g>
   <g id="legend_2">
    <g id="line2d_10">
     <path d="M 669.24468 39.580594 
L 678.24468 39.580594 
L 687.24468 39.580594 
" style="fill: none; stroke: #1f77b4; stroke-width: 1.5; stroke-linecap: square"/>
    </g>
    <g id="text_9">
     <!-- $\sigma$ = 1 -->
     <g transform="translate(694.44468 42.730594) scale(0.09 -0.09)">
      <defs>
       <path id="DejaVuSans-31" d="M 794 531 
L 1825 531 
L 1825 4091 
L 703 3866 
L 703 4441 
L 1819 4666 
L 2450 4666 
L 2450 531 
L 3481 531 
L 3481 0 
L 794 0 
L 794 531 
z
" transform="scale(0.015625)"/>
      </defs>
      <use xlink:href="#DejaVuSans-Oblique-3c3" transform="translate(0 0.09375)"/>
      <use xlink:href="#DejaVuSans-20" transform="translate(63.378906 0.09375)"/>
      <use xlink:href="#DejaVuSans-3d" transform="translate(95.166016 0.09375)"/>
      <use xlink:href="#DejaVuSans-20" transform="translate(178.955078 0.09375)"/>
      <use xlink:href="#DejaVuSans-31" transform="translate(210.742188 0.09375)"/>
     </g>
    </g>
    <g id="line2d_11">
     <path d="M 669.24468 52.790906 
L 678.24468 52.790906 
L 687.24468 52.790906 
" style="fill: none; stroke: #ff7f0e; stroke-width: 1.5; stroke-linecap: square"/>
    </g>
    <g id="text_10">
     <!-- $\sigma$ = 2 -->
     <g transform="translate(694.44468 55.940906) scale(0.09 -0.09)">
      <defs>
       <path id="DejaVuSans-32" d="M 1228 531 
L 3431 531 
L 3431 0 
L 469 0 
L 469 531 
Q 828 903 1448 1529 
Q 2069 2156 2228 2338 
Q 2531 2678 2651 2914 
Q 2772 3150 2772 3378 
Q 2772 3750 2511 3984 
Q 2250 4219 1831 4219 
Q 1534 4219 1204 4116 
Q 875 4013 500 3803 
L 500 4441 
Q 881 4594 1212 4672 
Q 1544 4750 1819 4750 
Q 2544 4750 2975 4387 
Q 3406 4025 3406 3419 
Q 3406 3131 3298 2873 
Q 3191 2616 2906 2266 
Q 2828 2175 2409 1742 
Q 1991 1309 1228 531 
z
" transform="scale(0.015625)"/>
      </defs>
      <use xlink:href="#DejaVuSans-Oblique-3c3" transform="translate(0 0.78125)"/>
      <use xlink:href="#DejaVuSans-20" transform="translate(63.378906 0.78125)"/>
      <use xlink:href="#DejaVuSans-3d" transform="translate(95.166016 0.78125)"/>
      <use xlink:href="#DejaVuSans-20" transform="translate(178.955078 0.78125)"/>
      <use xlink:href="#DejaVuSans-32" transform="translate(210.742188 0.78125)"/>
     </g>
    </g>
    <g id="line2d_12">
     <path d="M 669.24468 66.001219 
L 678.24468 66.001219 
L 687.24468 66.001219 
" style="fill: none; stroke: #2ca02c; stroke-width: 1.5; stroke-linecap: square"/>
    </g>
    <g id="text_11">
     <!-- $\sigma$ = 4 -->
     <g transform="translate(694.44468 69.151219) scale(0.09 -0.09)">
      <defs>
       <path id="DejaVuSans-34" d="M 2419 4116 
L 825 1625 
L 2419 1625 
L 2419 4116 
z
M 2253 4666 
L 3047 4666 
L 3047 1625 
L 3713 1625 
L 3713 1100 
L 3047 1100 
L 3047 0 
L 2419 0 
L 2419 1100 
L 313 1100 
L 313 1709 
L 2253 4666 
z
" transform="scale(0.015625)"/>
      </defs>
      <use xlink:href="#DejaVuSans-Oblique-3c3" transform="translate(0 0.09375)"/>
      <use xlink:href="#DejaVuSans-20" transform="translate(63.378906 0.09375)"/>
      <use xlink:href="#DejaVuSans-3d" transform="translate(95.166016 0.09375)"/>
      <use xlink:href="#DejaVuSans-20" transform="translate(178.955078 0.09375)"/>
      <use xlink:href="#DejaVuSans-34" transform="translate(210.742188 0.09375)"/>
     </g>
    </g>
   </g>
  </g>
  <g id="axes_3">
   <g id="patch_8">
    <path d="M 734.49468 269.71452 
L 1081.19952 269.71452 
L 1081.19952 27.792 
L 734.49468 27.792 
z
" style="fill: #ffffff"/>
   </g>
   <g id="matplotlib.axis_5">
    <g id="text_12">
     <!-- x -->
     <g transform="translate(903.1121 285.87202) scale(0.16 -0.16)">
      <use xlink:href="#DejaVuSans-78"/>
     </g>
    </g>
   </g>
   <g id="matplotlib.axis_6"/>
   <g id="line2d_13">
    <path d="M 750.253991 258.709454 
L 769.184094 258.575037 
L 777.071637 258.311025 
L 782.435166 257.92375 
L 786.536689 257.424308 
L 790.007208 256.79411 
L 793.162225 255.993253 
L 796.00174 255.029659 
L 798.525754 253.930496 
L 800.734266 252.741801 
L 802.942778 251.302936 
L 805.15129 249.573331 
L 807.0443 247.826037 
L 808.937311 245.803103 
L 810.830321 243.473468 
L 812.723331 240.805064 
L 814.616342 237.765318 
L 816.509352 234.32178 
L 818.402362 230.44286 
L 820.295373 226.098693 
L 822.188383 221.262119 
L 824.396895 214.966197 
L 826.605407 207.940099 
L 828.813919 200.167431 
L 831.337933 190.368969 
L 833.861947 179.620119 
L 836.701462 166.469974 
L 839.856479 150.724475 
L 843.958002 128.979129 
L 851.845545 86.760885 
L 854.68506 72.944416 
L 856.893572 63.271532 
L 858.786583 55.955913 
L 860.364091 50.679688 
L 861.626098 47.066642 
L 862.888105 44.047238 
L 864.150112 41.66873 
L 865.096617 40.332553 
L 866.043122 39.400101 
L 866.674126 39.011135 
L 867.305129 38.813841 
L 867.936132 38.81269 
L 868.567136 39.011894 
L 869.198139 39.415388 
L 869.829143 40.026818 
L 870.775648 41.341064 
L 871.722153 43.140525 
L 872.668658 45.433408 
L 873.615163 48.226122 
L 874.87717 52.734797 
L 876.139177 58.145169 
L 877.401184 64.456101 
L 878.978693 73.598711 
L 880.556201 84.10581 
L 882.449212 98.448655 
L 884.342222 114.57658 
L 886.550734 135.453746 
L 889.074748 161.680396 
L 891.914263 193.595925 
L 896.015786 242.564821 
L 897.277792 257.948077 
L 897.593294 258.718042 
L 1065.440209 258.718042 
L 1065.440209 258.718042 
" clip-path="url(#pc8246cbf2c)" style="fill: none; stroke: #1f77b4; stroke-width: 1.5; stroke-linecap: square"/>
   </g>
   <g id="line2d_14">
    <path d="M 750.253991 258.718042 
L 805.15129 258.613456 
L 807.990806 258.356362 
L 809.883816 257.968178 
L 811.461325 257.413869 
L 812.723331 256.753175 
L 813.985338 255.837762 
L 815.247345 254.603388 
L 816.509352 252.981078 
L 817.771359 250.900034 
L 819.033366 248.291163 
L 820.295373 245.090981 
L 821.55738 241.245615 
L 822.819386 236.714574 
L 824.396895 230.052012 
L 825.974404 222.278139 
L 827.551912 213.439585 
L 829.444923 201.568709 
L 831.653435 186.309842 
L 835.123954 160.554539 
L 839.225476 130.336571 
L 841.433988 115.485339 
L 843.326998 104.066379 
L 844.904507 95.666699 
L 846.482015 88.394501 
L 847.744022 83.436187 
L 849.006029 79.264383 
L 850.268036 75.886245 
L 851.214541 73.871144 
L 852.161046 72.294278 
L 853.107552 71.146808 
L 854.054057 70.417243 
L 854.68506 70.156301 
L 855.316064 70.070401 
L 855.947067 70.154599 
L 856.578071 70.403642 
L 857.524576 71.074157 
L 858.471081 72.083564 
L 859.417586 73.411454 
L 860.679593 75.641017 
L 861.9416 78.348667 
L 863.519108 82.327956 
L 865.412119 87.846115 
L 867.620631 95.10312 
L 870.460146 105.362558 
L 874.561669 121.191756 
L 881.818208 149.283871 
L 885.604229 162.95728 
L 888.759246 173.544738 
L 891.598761 182.371056 
L 894.438277 190.504983 
L 897.277792 197.945283 
L 900.117308 204.70829 
L 902.641322 210.174237 
L 905.165335 215.153248 
L 907.689349 219.674211 
L 910.213363 223.767791 
L 912.737377 227.465307 
L 915.26139 230.797895 
L 917.785404 233.795892 
L 920.62492 236.804881 
L 923.464435 239.466318 
L 926.303951 241.816584 
L 929.143466 243.88918 
L 932.298483 245.903522 
L 935.4535 247.650648 
L 938.924019 249.304048 
L 942.394538 250.714535 
L 946.180559 252.016657 
L 950.282081 253.192026 
L 954.699105 254.230422 
L 959.747133 255.182143 
L 965.426164 256.015097 
L 971.736198 256.713499 
L 979.30824 257.318363 
L 988.457789 257.811598 
L 999.815851 258.189708 
L 1015.275436 258.464753 
L 1038.622563 258.634633 
L 1065.440209 258.694762 
L 1065.440209 258.694762 
" clip-path="url(#pc8246cbf2c)" style="fill: none; stroke: #ff7f0e; stroke-width: 1.5; stroke-linecap: square"/>
   </g>
   <g id="line2d_15">
    <path d="M 750.253991 258.718042 
L 825.027899 258.654402 
L 825.974404 258.399819 
L 826.605407 257.958222 
L 827.236411 257.121836 
L 827.867414 255.701431 
L 828.498417 253.497991 
L 829.129421 250.328957 
L 829.760424 246.052404 
L 830.706929 237.395421 
L 831.653435 226.068968 
L 832.915442 207.379669 
L 834.808452 174.485255 
L 837.647967 124.525987 
L 839.225476 100.788162 
L 840.487483 84.962768 
L 841.74949 72.17711 
L 842.695995 64.5693 
L 843.6425 58.583794 
L 844.589005 54.116116 
L 845.220009 51.919945 
L 845.851012 50.303483 
L 846.482015 49.225961 
L 847.113019 48.646427 
L 847.744022 48.524394 
L 848.375026 48.820342 
L 849.006029 49.496112 
L 849.637033 50.515179 
L 850.583538 52.612107 
L 851.530043 55.295108 
L 852.79205 59.615418 
L 854.369558 65.926952 
L 856.578071 75.884502 
L 860.364091 94.277305 
L 865.096617 116.959429 
L 868.251634 130.958206 
L 871.09115 142.546964 
L 873.615163 152.004165 
L 876.139177 160.677378 
L 878.663191 168.600271 
L 881.187205 175.819095 
L 883.711218 182.386054 
L 886.235232 188.355061 
L 888.759246 193.779109 
L 891.28326 198.708719 
L 893.807273 203.191093 
L 896.646789 207.753191 
L 899.486304 211.860403 
L 902.32582 215.563022 
L 905.165335 218.905801 
L 908.004851 221.928411 
L 911.159868 224.953886 
L 914.314885 227.669522 
L 917.785404 230.34257 
L 921.255923 232.727372 
L 925.041944 235.042776 
L 928.827964 237.098585 
L 932.929487 239.072367 
L 937.346511 240.944277 
L 942.079037 242.700478 
L 947.127064 244.332505 
L 952.490593 245.8365 
L 958.485126 247.283057 
L 965.110662 248.643974 
L 972.367202 249.900654 
L 980.570246 251.084447 
L 989.719796 252.169931 
L 1000.131353 253.170737 
L 1011.804917 254.066155 
L 1025.371491 254.881763 
L 1041.462078 255.620973 
L 1060.707683 256.276589 
L 1065.440209 256.409018 
L 1065.440209 256.409018 
" clip-path="url(#pc8246cbf2c)" style="fill: none; stroke: #2ca02c; stroke-width: 1.5; stroke-linecap: square"/>
   </g>
   <g id="patch_9">
    <path d="M 734.49468 269.71452 
L 734.49468 27.792 
" style="fill: none; stroke: #000000; stroke-width: 0.8; stroke-linejoin: miter; stroke-linecap: square"/>
   </g>
   <g id="patch_10">
    <path d="M 734.49468 269.71452 
L 1081.19952 269.71452 
" style="fill: none; stroke: #000000; stroke-width: 0.8; stroke-linejoin: miter; stroke-linecap: square"/>
   </g>
   <g id="text_13">
    <!-- Effet de $\xi$ (forme) -->
    <g transform="translate(911.27952 21.792) scale(0.192 -0.192)">
     <defs>
      <path id="DejaVuSans-Oblique-3be" d="M 2016 397 
Q 2428 394 2628 159 
Q 2844 -88 2772 -463 
Q 2700 -822 2422 -1072 
Q 2119 -1344 1609 -1344 
Q 1656 -1109 1700 -872 
Q 1913 -888 2072 -750 
Q 2194 -641 2216 -525 
Q 2247 -359 2175 -222 
Q 2100 -91 1922 -91 
Q -25 -91 241 1275 
Q 422 2213 1516 2488 
Q 663 2600 822 3413 
Q 941 4028 1678 4284 
L 1028 4284 
L 1141 4863 
L 3606 4863 
L 3494 4284 
Q 1528 4284 1350 3375 
Q 1234 2778 2881 2750 
L 2778 2219 
Q 1009 2288 819 1275 
Q 659 428 2016 397 
z
" transform="scale(0.015625)"/>
      <path id="DejaVuSans-72" d="M 2631 2963 
Q 2534 3019 2420 3045 
Q 2306 3072 2169 3072 
Q 1681 3072 1420 2755 
Q 1159 2438 1159 1844 
L 1159 0 
L 581 0 
L 581 3500 
L 1159 3500 
L 1159 2956 
Q 1341 3275 1631 3429 
Q 1922 3584 2338 3584 
Q 2397 3584 2469 3576 
Q 2541 3569 2628 3553 
L 2631 2963 
z
" transform="scale(0.015625)"/>
      <path id="DejaVuSans-6d" d="M 3328 2828 
Q 3544 3216 3844 3400 
Q 4144 3584 4550 3584 
Q 5097 3584 5394 3201 
Q 5691 2819 5691 2113 
L 5691 0 
L 5113 0 
L 5113 2094 
Q 5113 2597 4934 2840 
Q 4756 3084 4391 3084 
Q 3944 3084 3684 2787 
Q 3425 2491 3425 1978 
L 3425 0 
L 2847 0 
L 2847 2094 
Q 2847 2600 2669 2842 
Q 2491 3084 2119 3084 
Q 1678 3084 1418 2786 
Q 1159 2488 1159 1978 
L 1159 0 
L 581 0 
L 581 3500 
L 1159 3500 
L 1159 2956 
Q 1356 3278 1631 3431 
Q 1906 3584 2284 3584 
Q 2666 3584 2933 3390 
Q 3200 3197 3328 2828 
z
" transform="scale(0.015625)"/>
     </defs>
     <use xlink:href="#DejaVuSans-45" transform="translate(0 0.015625)"/>
     <use xlink:href="#DejaVuSans-66" transform="translate(63.183594 0.015625)"/>
     <use xlink:href="#DejaVuSans-66" transform="translate(98.388672 0.015625)"/>
     <use xlink:href="#DejaVuSans-65" transform="translate(133.59375 0.015625)"/>
     <use xlink:href="#DejaVuSans-74" transform="translate(195.117188 0.015625)"/>
     <use xlink:href="#DejaVuSans-20" transform="translate(234.326172 0.015625)"/>
     <use xlink:href="#DejaVuSans-64" transform="translate(266.113281 0.015625)"/>
     <use xlink:href="#DejaVuSans-65" transform="translate(329.589844 0.015625)"/>
     <use xlink:href="#DejaVuSans-20" transform="translate(391.113281 0.015625)"/>
     <use xlink:href="#DejaVuSans-Oblique-3be" transform="translate(422.900391 0.015625)"/>
     <use xlink:href="#DejaVuSans-20" transform="translate(478.662109 0.015625)"/>
     <use xlink:href="#DejaVuSans-28" transform="translate(510.449219 0.015625)"/>
     <use xlink:href="#DejaVuSans-66" transform="translate(549.462891 0.015625)"/>
     <use xlink:href="#DejaVuSans-6f" transform="translate(584.667969 0.015625)"/>
     <use xlink:href="#DejaVuSans-72" transform="translate(645.849609 0.015625)"/>
     <use xlink:href="#DejaVuSans-6d" transform="translate(686.962891 0.015625)"/>
     <use xlink:href="#DejaVuSans-65" transform="translate(784.375 0.015625)"/>
     <use xlink:href="#DejaVuSans-29" transform="translate(845.898438 0.015625)"/>
    </g>
   </g>
   <g id="legend_3">
    <g id="line2d_16">
     <path d="M 1011.98952 39.582 
L 1020.98952 39.582 
L 1029.98952 39.582 
" style="fill: none; stroke: #1f77b4; stroke-width: 1.5; stroke-linecap: square"/>
    </g>
    <g id="text_14">
     <!-- $\xi$ = -0.5 -->
     <g transform="translate(1037.18952 42.732) scale(0.09 -0.09)">
      <defs>
       <path id="DejaVuSans-2e" d="M 684 794 
L 1344 794 
L 1344 0 
L 684 0 
L 684 794 
z
" transform="scale(0.015625)"/>
      </defs>
      <use xlink:href="#DejaVuSans-Oblique-3be" transform="translate(0 0.015625)"/>
      <use xlink:href="#DejaVuSans-20" transform="translate(55.761719 0.015625)"/>
      <use xlink:href="#DejaVuSans-3d" transform="translate(87.548828 0.015625)"/>
      <use xlink:href="#DejaVuSans-20" transform="translate(171.337891 0.015625)"/>
      <use xlink:href="#DejaVuSans-2d" transform="translate(203.125 0.015625)"/>
      <use xlink:href="#DejaVuSans-30" transform="translate(239.208984 0.015625)"/>
      <use xlink:href="#DejaVuSans-2e" transform="translate(302.832031 0.015625)"/>
      <use xlink:href="#DejaVuSans-35" transform="translate(334.619141 0.015625)"/>
     </g>
    </g>
    <g id="line2d_17">
     <path d="M 1011.98952 52.812 
L 1020.98952 52.812 
L 1029.98952 52.812 
" style="fill: none; stroke: #ff7f0e; stroke-width: 1.5; stroke-linecap: square"/>
    </g>
    <g id="text_15">
     <!-- $\xi$ = 0.0 -->
     <g transform="translate(1037.18952 55.962) scale(0.09 -0.09)">
      <use xlink:href="#DejaVuSans-Oblique-3be" transform="translate(0 0.015625)"/>
      <use xlink:href="#DejaVuSans-20" transform="translate(55.761719 0.015625)"/>
      <use xlink:href="#DejaVuSans-3d" transform="translate(87.548828 0.015625)"/>
      <use xlink:href="#DejaVuSans-20" transform="translate(171.337891 0.015625)"/>
      <use xlink:href="#DejaVuSans-30" transform="translate(203.125 0.015625)"/>
      <use xlink:href="#DejaVuSans-2e" transform="translate(266.748047 0.015625)"/>
      <use xlink:href="#DejaVuSans-30" transform="translate(298.535156 0.015625)"/>
     </g>
    </g>
    <g id="line2d_18">
     <path d="M 1011.98952 66.042 
L 1020.98952 66.042 
L 1029.98952 66.042 
" style="fill: none; stroke: #2ca02c; stroke-width: 1.5; stroke-linecap: square"/>
    </g>
    <g id="text_16">
     <!-- $\xi$ = 0.5 -->
     <g transform="translate(1037.18952 69.192) scale(0.09 -0.09)">
      <use xlink:href="#DejaVuSans-Oblique-3be" transform="translate(0 0.015625)"/>
      <use xlink:href="#DejaVuSans-20" transform="translate(55.761719 0.015625)"/>
      <use xlink:href="#DejaVuSans-3d" transform="translate(87.548828 0.015625)"/>
      <use xlink:href="#DejaVuSans-20" transform="translate(171.337891 0.015625)"/>
      <use xlink:href="#DejaVuSans-30" transform="translate(203.125 0.015625)"/>
      <use xlink:href="#DejaVuSans-2e" transform="translate(266.748047 0.015625)"/>
      <use xlink:href="#DejaVuSans-35" transform="translate(298.535156 0.015625)"/>
     </g>
    </g>
   </g>
  </g>
 </g>
 <defs>
  <clipPath id="p0a487af336">
   <rect x="26.685" y="27.792" width="346.70484" height="241.92252"/>
  </clipPath>
  <clipPath id="pbd010ca384">
   <rect x="380.58984" y="27.792" width="346.70484" height="241.92252"/>
  </clipPath>
  <clipPath id="pc8246cbf2c">
   <rect x="734.49468" y="27.792" width="346.70484" height="241.92252"/>
  </clipPath>
 </defs>
</svg>
