<?xml version="1.0" encoding="utf-8" standalone="no"?>
<!DOCTYPE svg PUBLIC "-//W3C//DTD SVG 1.1//EN"
  "http://www.w3.org/Graphics/SVG/1.1/DTD/svg11.dtd">
<svg xmlns:xlink="http://www.w3.org/1999/xlink" width="508.032pt" height="49.35375pt" viewBox="0 0 508.032 49.35375" xmlns="http://www.w3.org/2000/svg" version="1.1">
 <metadata>
  <rdf:RDF xmlns:dc="http://purl.org/dc/elements/1.1/" xmlns:cc="http://creativecommons.org/ns#" xmlns:rdf="http://www.w3.org/1999/02/22-rdf-syntax-ns#">
   <cc:Work>
    <dc:type rdf:resource="http://purl.org/dc/dcmitype/StillImage"/>
    <dc:date>2025-11-22T20:38:07.124033</dc:date>
    <dc:format>image/svg+xml</dc:format>
    <dc:creator>
     <cc:Agent>
      <dc:title>Matplotlib v3.10.1, https://matplotlib.org/</dc:title>
     </cc:Agent>
    </dc:creator>
   </cc:Work>
  </rdf:RDF>
 </metadata>
 <defs>
  <style type="text/css">*{stroke-linejoin: round; stroke-linecap: butt}</style>
 </defs>
 <g id="figure_1">
  <g id="patch_1">
   <path d="M 0 49.35375 
L 508.032 49.35375 
L 508.032 0 
L 0 0 
z
" style="fill: #ffffff"/>
  </g>
  <g id="axes_1">
   <g id="patch_2">
    <path d="M 0 30.24 
L 508.032 30.24 
L 508.032 0 
L 0 0 
z
" style="fill: #ffffff"/>
   </g>
   <g id="QuadMesh_1">
    <path d="M 0 30.24 
L 0 0 
L 33.8688 0 
L 33.8688 30.24 
L 0 30.24 
" clip-path="url(#pb62ad50d2d)" style="fill: #543005"/>
    <path d="M 33.8688 30.24 
L 33.8688 0 
L 67.7376 0 
L 67.7376 30.24 
L 33.8688 30.24 
" clip-path="url(#pb62ad50d2d)" style="fill: #794c13"/>
    <path d="M 67.7376 30.24 
L 67.7376 0 
L 101.6064 0 
L 101.6064 30.24 
L 67.7376 30.24 
" clip-path="url(#pb62ad50d2d)" style="fill: #9f6921"/>
    <path d="M 101.6064 30.24 
L 101.6064 0 
L 135.4752 0 
L 135.4752 30.24 
L 101.6064 30.24 
" clip-path="url(#pb62ad50d2d)" style="fill: #c18535"/>
    <path d="M 135.4752 30.24 
L 135.4752 0 
L 169.344 0 
L 169.344 30.24 
L 135.4752 30.24 
" clip-path="url(#pb62ad50d2d)" style="fill: #cea165"/>
    <path d="M 169.344 30.24 
L 169.344 0 
L 203.2128 0 
L 203.2128 30.24 
L 169.344 30.24 
" clip-path="url(#pb62ad50d2d)" style="fill: #ddbf97"/>
    <path d="M 203.2128 30.24 
L 203.2128 0 
L 237.0816 0 
L 237.0816 30.24 
L 203.2128 30.24 
" clip-path="url(#pb62ad50d2d)" style="fill: #eadbc7"/>
    <path d="M 237.0816 30.24 
L 237.0816 0 
L 270.9504 0 
L 270.9504 30.24 
L 237.0816 30.24 
" clip-path="url(#pb62ad50d2d)" style="fill: #f8f8f7"/>
    <path d="M 270.9504 30.24 
L 270.9504 0 
L 304.8192 0 
L 304.8192 30.24 
L 270.9504 30.24 
" clip-path="url(#pb62ad50d2d)" style="fill: #cce2e0"/>
    <path d="M 304.8192 30.24 
L 304.8192 0 
L 338.688 0 
L 338.688 30.24 
L 304.8192 30.24 
" clip-path="url(#pb62ad50d2d)" style="fill: #9ecbc7"/>
    <path d="M 338.688 30.24 
L 338.688 0 
L 372.5568 0 
L 372.5568 30.24 
L 338.688 30.24 
" clip-path="url(#pb62ad50d2d)" style="fill: #6db3ad"/>
    <path d="M 372.5568 30.24 
L 372.5568 0 
L 406.4256 0 
L 406.4256 30.24 
L 372.5568 30.24 
" clip-path="url(#pb62ad50d2d)" style="fill: #3f9c94"/>
    <path d="M 406.4256 30.24 
L 406.4256 0 
L 440.2944 0 
L 440.2944 30.24 
L 406.4256 30.24 
" clip-path="url(#pb62ad50d2d)" style="fill: #267e74"/>
    <path d="M 440.2944 30.24 
L 440.2944 0 
L 474.1632 0 
L 474.1632 30.24 
L 440.2944 30.24 
" clip-path="url(#pb62ad50d2d)" style="fill: #135d53"/>
    <path d="M 474.1632 30.24 
L 474.1632 0 
L 508.032 0 
L 508.032 30.24 
L 474.1632 30.24 
" clip-path="url(#pb62ad50d2d)" style="fill: #003c30"/>
   </g>
   <g id="matplotlib.axis_1">
    <g id="xtick_1">
     <g id="line2d_1">
      <defs>
       <path id="m0805422a88" d="M 0 0 
L 0 4 
" style="stroke: #000000; stroke-width: 0.8"/>
      </defs>
      <g>
       <use xlink:href="#m0805422a88" x="39.518027" y="30.24" style="stroke: #000000; stroke-width: 0.8"/>
      </g>
     </g>
     <g id="text_1">
      <!-- -30 -->
      <g transform="translate(29.718339 46.858125) scale(0.12 -0.12)">
       <defs>
        <path id="DejaVuSans-2d" d="M 313 2009 
L 1997 2009 
L 1997 1497 
L 313 1497 
L 313 2009 
z
" transform="scale(0.015625)"/>
        <path id="DejaVuSans-33" d="M 2597 2516 
Q 3050 2419 3304 2112 
Q 3559 1806 3559 1356 
Q 3559 666 3084 287 
Q 2609 -91 1734 -91 
Q 1441 -91 1130 -33 
Q 819 25 488 141 
L 488 750 
Q 750 597 1062 519 
Q 1375 441 1716 441 
Q 2309 441 2620 675 
Q 2931 909 2931 1356 
Q 2931 1769 2642 2001 
Q 2353 2234 1838 2234 
L 1294 2234 
L 1294 2753 
L 1863 2753 
Q 2328 2753 2575 2939 
Q 2822 3125 2822 3475 
Q 2822 3834 2567 4026 
Q 2313 4219 1838 4219 
Q 1578 4219 1281 4162 
Q 984 4106 628 3988 
L 628 4550 
Q 988 4650 1302 4700 
Q 1616 4750 1894 4750 
Q 2613 4750 3031 4423 
Q 3450 4097 3450 3541 
Q 3450 3153 3228 2886 
Q 3006 2619 2597 2516 
z
" transform="scale(0.015625)"/>
        <path id="DejaVuSans-30" d="M 2034 4250 
Q 1547 4250 1301 3770 
Q 1056 3291 1056 2328 
Q 1056 1369 1301 889 
Q 1547 409 2034 409 
Q 2525 409 2770 889 
Q 3016 1369 3016 2328 
Q 3016 3291 2770 3770 
Q 2525 4250 2034 4250 
z
M 2034 4750 
Q 2819 4750 3233 4129 
Q 3647 3509 3647 2328 
Q 3647 1150 3233 529 
Q 2819 -91 2034 -91 
Q 1250 -91 836 529 
Q 422 1150 422 2328 
Q 422 3509 836 4129 
Q 1250 4750 2034 4750 
z
" transform="scale(0.015625)"/>
       </defs>
       <use xlink:href="#DejaVuSans-2d"/>
       <use xlink:href="#DejaVuSans-33" transform="translate(36.083984 0)"/>
       <use xlink:href="#DejaVuSans-30" transform="translate(99.707031 0)"/>
      </g>
     </g>
    </g>
    <g id="xtick_2">
     <g id="line2d_2">
      <g>
       <use xlink:href="#m0805422a88" x="111.017351" y="30.24" style="stroke: #000000; stroke-width: 0.8"/>
      </g>
     </g>
     <g id="text_2">
      <!-- -20 -->
      <g transform="translate(101.217664 46.858125) scale(0.12 -0.12)">
       <defs>
        <path id="DejaVuSans-32" d="M 1228 531 
L 3431 531 
L 3431 0 
L 469 0 
L 469 531 
Q 828 903 1448 1529 
Q 2069 2156 2228 2338 
Q 2531 2678 2651 2914 
Q 2772 3150 2772 3378 
Q 2772 3750 2511 3984 
Q 2250 4219 1831 4219 
Q 1534 4219 1204 4116 
Q 875 4013 500 3803 
L 500 4441 
Q 881 4594 1212 4672 
Q 1544 4750 1819 4750 
Q 2544 4750 2975 4387 
Q 3406 4025 3406 3419 
Q 3406 3131 3298 2873 
Q 3191 2616 2906 2266 
Q 2828 2175 2409 1742 
Q 1991 1309 1228 531 
z
" transform="scale(0.015625)"/>
       </defs>
       <use xlink:href="#DejaVuSans-2d"/>
       <use xlink:href="#DejaVuSans-32" transform="translate(36.083984 0)"/>
       <use xlink:href="#DejaVuSans-30" transform="translate(99.707031 0)"/>
      </g>
     </g>
    </g>
    <g id="xtick_3">
     <g id="line2d_3">
      <g>
       <use xlink:href="#m0805422a88" x="182.516676" y="30.24" style="stroke: #000000; stroke-width: 0.8"/>
      </g>
     </g>
     <g id="text_3">
      <!-- -10 -->
      <g transform="translate(172.716988 46.858125) scale(0.12 -0.12)">
       <defs>
        <path id="DejaVuSans-31" d="M 794 531 
L 1825 531 
L 1825 4091 
L 703 3866 
L 703 4441 
L 1819 4666 
L 2450 4666 
L 2450 531 
L 3481 531 
L 3481 0 
L 794 0 
L 794 531 
z
" transform="scale(0.015625)"/>
       </defs>
       <use xlink:href="#DejaVuSans-2d"/>
       <use xlink:href="#DejaVuSans-31" transform="translate(36.083984 0)"/>
       <use xlink:href="#DejaVuSans-30" transform="translate(99.707031 0)"/>
      </g>
     </g>
    </g>
    <g id="xtick_4">
     <g id="line2d_4">
      <g>
       <use xlink:href="#m0805422a88" x="254.016" y="30.24" style="stroke: #000000; stroke-width: 0.8"/>
      </g>
     </g>
     <g id="text_4">
      <!-- 0 -->
      <g transform="translate(250.1985 46.858125) scale(0.12 -0.12)">
       <use xlink:href="#DejaVuSans-30"/>
      </g>
     </g>
    </g>
    <g id="xtick_5">
     <g id="line2d_5">
      <g>
       <use xlink:href="#m0805422a88" x="325.515324" y="30.24" style="stroke: #000000; stroke-width: 0.8"/>
      </g>
     </g>
     <g id="text_5">
      <!-- 10 -->
      <g transform="translate(317.880324 46.858125) scale(0.12 -0.12)">
       <use xlink:href="#DejaVuSans-31"/>
       <use xlink:href="#DejaVuSans-30" transform="translate(63.623047 0)"/>
      </g>
     </g>
    </g>
    <g id="xtick_6">
     <g id="line2d_6">
      <g>
       <use xlink:href="#m0805422a88" x="397.014649" y="30.24" style="stroke: #000000; stroke-width: 0.8"/>
      </g>
     </g>
     <g id="text_6">
      <!-- 20 -->
      <g transform="translate(389.379649 46.858125) scale(0.12 -0.12)">
       <use xlink:href="#DejaVuSans-32"/>
       <use xlink:href="#DejaVuSans-30" transform="translate(63.623047 0)"/>
      </g>
     </g>
    </g>
    <g id="xtick_7">
     <g id="line2d_7">
      <g>
       <use xlink:href="#m0805422a88" x="468.513973" y="30.24" style="stroke: #000000; stroke-width: 0.8"/>
      </g>
     </g>
     <g id="text_7">
      <!-- 30 -->
      <g transform="translate(460.878973 46.858125) scale(0.12 -0.12)">
       <use xlink:href="#DejaVuSans-33"/>
       <use xlink:href="#DejaVuSans-30" transform="translate(63.623047 0)"/>
      </g>
     </g>
    </g>
   </g>
   <g id="matplotlib.axis_2"/>
   <g id="LineCollection_1"/>
   <g id="patch_3">
    <path d="M 0 30.24 
L 0 15.12 
L 0 0 
L 508.032 0 
L 508.032 15.12 
L 508.032 30.24 
L 0 30.24 
z
" style="fill: none; stroke: #000000; stroke-width: 0.8; stroke-linejoin: miter; stroke-linecap: square"/>
   </g>
  </g>
 </g>
 <defs>
  <clipPath id="pb62ad50d2d">
   <rect x="0" y="0" width="508.032" height="30.24"/>
  </clipPath>
 </defs>
</svg>
